<?xml version="1.0" encoding="UTF-8" standalone="no"?>
<!-- Created with Inkscape (http://www.inkscape.org/) -->

<svg
   width="511.99994"
   height="511.99997"
   viewBox="0 0 135.46664 135.46666"
   version="1.1"
   id="svg1"
   xml:space="preserve"
   xmlns:xlink="http://www.w3.org/1999/xlink"
   xmlns="http://www.w3.org/2000/svg"
   xmlns:svg="http://www.w3.org/2000/svg"><defs
     id="defs1"><linearGradient
       id="linearGradient68"><stop
         style="stop-color:#d49034;stop-opacity:1;"
         offset="0.35627529"
         id="stop70" /><stop
         style="stop-color:#b1631e;stop-opacity:1;"
         offset="1"
         id="stop80" /><stop
         style="stop-color:#802400;stop-opacity:1;"
         offset="1"
         id="stop69" /></linearGradient><linearGradient
       id="linearGradient65"><stop
         style="stop-color:#be8685;stop-opacity:1;"
         offset="0"
         id="stop65" /><stop
         style="stop-color:#f2bfbc;stop-opacity:1;"
         offset="1"
         id="stop66" /></linearGradient><linearGradient
       id="linearGradient4"><stop
         style="stop-color:#a07260;stop-opacity:1;"
         offset="0"
         id="stop4" /><stop
         style="stop-color:#c5967a;stop-opacity:1;"
         offset="1"
         id="stop5" /></linearGradient><linearGradient
       xlink:href="#linearGradient4"
       id="linearGradient5"
       x1="42.25668"
       y1="71.076653"
       x2="84.27459"
       y2="71.076653"
       gradientUnits="userSpaceOnUse" /><linearGradient
       xlink:href="#linearGradient65"
       id="linearGradient66"
       x1="48.917416"
       y1="55.602806"
       x2="79.480324"
       y2="54.535522"
       gradientUnits="userSpaceOnUse" /><radialGradient
       xlink:href="#linearGradient68"
       id="radialGradient69"
       cx="74.745781"
       cy="63.074318"
       fx="74.745781"
       fy="63.074318"
       r="3.1472294"
       gradientTransform="matrix(1,0,0,0.93910731,-0.84065423,3.7983291)"
       gradientUnits="userSpaceOnUse" /><linearGradient
       xlink:href="#linearGradient4"
       id="linearGradient87"
       x1="29.65222"
       y1="160.43547"
       x2="133.00281"
       y2="160.43547"
       gradientUnits="userSpaceOnUse"
       gradientTransform="matrix(1.310749,0,0,1.342171,-38.866617,-147.59851)" /></defs><g
     id="layer1"><rect
       style="opacity:0.415673;fill:url(#linearGradient87);stroke:none;stroke-width:1.32653;stroke-linecap:square;stroke-dasharray:none;stroke-opacity:1"
       id="rect86"
       width="135.46666"
       height="135.46666"
       x="0"
       y="-2.220446e-16" /><g
       id="g71"
       transform="matrix(0.99999923,0,0,0.99999797,0.52558975,-0.05165618)"><path
         style="fill:url(#linearGradient5);fill-opacity:1;stroke:none;stroke-width:1.32292;stroke-dasharray:none;stroke-opacity:1"
         d="m 83.436681,91.785751 c 0.48635,-4.404201 2.53557,-28.813613 -2.37773,-37.422214 -4.913304,-8.608601 -10.902535,-9.560488 -16.80622,-9.560488 -5.903685,0 -20.156596,1.662202 -21.532212,12.285017 -1.375617,10.622811 0.781119,20.971705 0.429863,38.804672 9.564956,1.161846 28.802948,4.052946 40.286299,-4.106987 z"
         id="path1-1" /><path
         style="display:inline;fill:none;stroke:#000000;stroke-width:1.32292;stroke-linecap:square;stroke-dasharray:none;stroke-opacity:1"
         d="M 43.150382,95.892738 C 43.501638,78.059771 41.344902,67.710877 42.720519,57.088066 44.096135,46.465251 58.349046,44.803049 64.252731,44.803049 c 5.903685,0 11.892916,0.951887 16.806219,9.560488 4.913303,8.608601 2.864083,33.018013 2.377731,37.422214"
         id="path1" /><path
         style="fill:url(#linearGradient66);fill-opacity:1;stroke:#000000;stroke-width:1.32292;stroke-dasharray:none;stroke-opacity:1"
         d="m 49.751445,63.889723 c -0.63049,-5.903687 -2.445538,-17.768374 2.942291,-21.818799 5.387829,-4.050426 12.342333,-3.247982 14.329333,-2.789443 1.987002,0.458538 7.06755,2.667555 9.896792,7.833367 2.69528,4.489256 3.86923,11.519937 2.13985,16.583815 -1.729383,5.063879 -5.234985,7.6041 -14.787874,7.909793 -9.552889,0.305692 -13.889902,-1.815046 -14.520392,-7.718733 z"
         id="path2-5" /><path
         style="fill:#e3bb3f;fill-opacity:1;stroke:none;stroke-width:1.32292;stroke-dasharray:none;stroke-opacity:1"
         d="m 79.136131,71.684879 c 4.06953,-5.082138 10.87119,-5.553083 12.32323,-3.951547 1.45204,1.601537 1.71952,6.664569 -9.83948,11.36459 -0.385302,-0.950338 -1.736285,-1.713643 -2.209129,-3.442901 -0.472843,-1.729258 0.07221,-2.671452 -0.274621,-3.970142 z"
         id="path3-2" /><path
         style="opacity:1;fill:none;fill-opacity:1;stroke:#000000;stroke-width:1.32292;stroke-linecap:square;stroke-dasharray:none;stroke-opacity:1"
         d="m 79.136131,71.684879 c 4.06953,-5.082138 10.87119,-5.553083 12.32323,-3.951547 1.45204,1.601537 1.71952,6.664569 -9.83948,11.36459"
         id="path3-2-7" /><path
         style="fill:none;fill-opacity:1;stroke:#000000;stroke-width:1.32292;stroke-linecap:butt;stroke-dasharray:none;stroke-opacity:1"
         d="m 81.275981,75.420058 c 4.88152,-5.015267 10.82674,-6.343962 10.82674,-6.343962"
         id="path4-7" /><path
         style="opacity:1;fill:url(#radialGradient69);fill-opacity:1;stroke:#000000;stroke-width:0.529167;stroke-dasharray:none;stroke-opacity:1"
         d="m 71.004597,61.555611 c 1.026745,-1.519854 2.6817,-1.73601 3.938114,-1.242904 1.256414,0.493109 1.796807,1.256414 2.019718,2.188594 0.222911,0.932177 0.09457,2.506072 -1.11456,3.141033 -1.20913,0.634963 -3.613878,0.493109 -4.579832,-1.269924 -0.965951,-1.763032 -0.26344,-2.816799 -0.26344,-2.816799 z"
         id="path68" /><path
         style="fill:#000000;fill-opacity:1;stroke:none;stroke-width:0.400522;stroke-dasharray:none;stroke-opacity:1"
         d="m 73.097158,62.59175 c 0.310853,-0.460145 0.8119,-0.525587 1.192287,-0.376296 0.380387,0.149291 0.543994,0.380386 0.611482,0.662609 0.06749,0.282223 0.02863,0.758729 -0.33744,0.950967 -0.366071,0.192239 -1.094123,0.149291 -1.386571,-0.384477 -0.292447,-0.533769 -0.07976,-0.852803 -0.07976,-0.852803 z"
         id="path68-6" /></g></g></svg>
