<?xml version="1.0" encoding="UTF-8" standalone="no"?>
<!-- Created with Inkscape (http://www.inkscape.org/) -->

<svg
   width="512"
   height="512"
   viewBox="0 0 135.46666 135.46667"
   version="1.1"
   id="svg1"
   xml:space="preserve"
   inkscape:version="1.4.3 (0d15f75, 2025-12-25)"
   sodipodi:docname="no_pigeon.svg"
   xmlns:inkscape="http://www.inkscape.org/namespaces/inkscape"
   xmlns:sodipodi="http://sodipodi.sourceforge.net/DTD/sodipodi-0.dtd"
   xmlns="http://www.w3.org/2000/svg"
   xmlns:svg="http://www.w3.org/2000/svg"><sodipodi:namedview
     id="namedview1"
     pagecolor="#505050"
     bordercolor="#eeeeee"
     borderopacity="1"
     inkscape:showpageshadow="0"
     inkscape:pageopacity="0"
     inkscape:pagecheckerboard="0"
     inkscape:deskcolor="#505050"
     inkscape:document-units="px"
     inkscape:zoom="2.448064"
     inkscape:cx="283.89781"
     inkscape:cy="166.25383"
     inkscape:window-width="3360"
     inkscape:window-height="1766"
     inkscape:window-x="5028"
     inkscape:window-y="-12"
     inkscape:window-maximized="1"
     inkscape:current-layer="layer1" /><defs
     id="defs1" /><g
     inkscape:label="Calque 1"
     inkscape:groupmode="layer"
     id="layer1"><rect
       style="opacity:1;fill:#ffffff;fill-opacity:1;stroke:none;stroke-width:1.45037;stroke-linecap:butt;stroke-opacity:1"
       id="rect7"
       width="135.46666"
       height="135.46666"
       x="1.110223e-16"
       y="7.7715612e-15" /><path
       style="opacity:1;fill:none;stroke-width:1.323;stroke:#949494;stroke-opacity:1;stroke-dasharray:5.29199982,5.29199982;stroke-dashoffset:0"
       d="m 41.934497,90.137553 c -4.5393,-41.502181 -4.5393,-49.716155 14.266376,-51.877729 18.805675,-2.161572 23.777291,3.24236 24.858077,47.554586"
       id="path1" /><path
       style="opacity:1;fill:none;stroke:#949494;stroke-width:1.323;stroke-opacity:1;stroke-dasharray:5.29199982,5.29199982;stroke-dashoffset:0"
       d="m 54.201419,61.712882 c 6.917031,-2.43177 16.860261,-1.188866 16.698143,5.241811 -0.162119,6.430677 -9.889191,7.295306 -13.83406,5.349891"
       id="path2" /><path
       style="opacity:1;fill:none;stroke:#949494;stroke-width:1.323;stroke-opacity:1;stroke-dasharray:5.29199982,5.29199982;stroke-dashoffset:0"
       d="m 60.794214,68.305676 c 1.621179,-1.675219 5.29585,-0.81059 5.890284,0.162119"
       id="path3" /><path
       style="opacity:1;fill:none;stroke:#949494;stroke-width:1.323;stroke-opacity:1;stroke-dasharray:5.29199982,5.29199982;stroke-dashoffset:0"
       d="m 50.25655,52.634279 c 2.32369,1.405022 3.134278,1.513099 3.134278,1.513099"
       id="path4" /><path
       style="opacity:1;fill:none;stroke:#949494;stroke-width:1.323;stroke-opacity:1;stroke-dasharray:5.29199982,5.29199982;stroke-dashoffset:0"
       d="m 67.170849,46.095523 c -0.756549,1.675219 -1.945412,2.810044 -1.945412,2.810044"
       id="path5" /><path
       style="opacity:1;fill:none;stroke:#949494;stroke-width:1.323;stroke-linecap:butt;stroke-opacity:1;stroke-dasharray:5.29199982,5.29199982;stroke-dashoffset:0"
       d="m 83.166483,42.528929 c -4.168847,-10.093464 2.834382,-15.081608 7.565504,-15.293121 4.224807,-0.188878 10.503343,2.142169 8.646287,10.915938 -1.336809,6.315824 -5.883748,4.169387 -7.079149,11.61845 -1.096536,6.832994 0.432315,9.024564 0.432315,9.024564"
       id="path6"
       sodipodi:nodetypes="csssc" /><path
       style="opacity:1;fill:none;fill-opacity:1;stroke:#949494;stroke-width:1.323;stroke-dasharray:5.292, 5.292;stroke-dashoffset:0;stroke-opacity:1"
       d="m 92.29913,62.145196 c 0.844246,-0.925947 2.10753,0.540392 1.08078,1.026747 -1.02674,0.486352 -1.925026,-0.1008 -1.08078,-1.026747 z"
       id="path7"
       sodipodi:nodetypes="zsz" /></g></svg>
