<?xml version="1.0" encoding="UTF-8" standalone="no"?>
<!-- Created with Inkscape (http://www.inkscape.org/) -->

<svg
   width="512"
   height="512"
   viewBox="0 0 135.46666 135.46667"
   version="1.1"
   id="svg1"
   xml:space="preserve"
   inkscape:version="1.4.3 (0d15f75, 2025-12-25)"
   sodipodi:docname="nord VPigeN.svg"
   inkscape:export-filename="nord VPigeN.png"
   inkscape:export-xdpi="96"
   inkscape:export-ydpi="96"
   xmlns:inkscape="http://www.inkscape.org/namespaces/inkscape"
   xmlns:sodipodi="http://sodipodi.sourceforge.net/DTD/sodipodi-0.dtd"
   xmlns="http://www.w3.org/2000/svg"
   xmlns:svg="http://www.w3.org/2000/svg"><sodipodi:namedview
     id="namedview1"
     pagecolor="#505050"
     bordercolor="#eeeeee"
     borderopacity="1"
     inkscape:showpageshadow="0"
     inkscape:pageopacity="0"
     inkscape:pagecheckerboard="0"
     inkscape:deskcolor="#505050"
     inkscape:document-units="px"
     inkscape:zoom="2.448064"
     inkscape:cx="248.15528"
     inkscape:cy="194.03088"
     inkscape:window-width="2880"
     inkscape:window-height="1676"
     inkscape:window-x="-12"
     inkscape:window-y="-12"
     inkscape:window-maximized="1"
     inkscape:current-layer="layer1" /><defs
     id="defs1" /><g
     inkscape:label="Calque 1"
     inkscape:groupmode="layer"
     id="layer1"><rect
       style="opacity:1;fill:#a4bdcc;fill-opacity:1;stroke:none;stroke-width:1.32292;stroke-linecap:round;stroke-linejoin:round;stroke-dasharray:none;stroke-opacity:1"
       id="rect21"
       width="135.46666"
       height="135.46666"
       x="0"
       y="0" /><path
       style="opacity:1;fill:#0c284b;fill-opacity:1;stroke:none;stroke-width:1.32292;stroke-linecap:round;stroke-linejoin:round;stroke-dasharray:none;stroke-opacity:1"
       d="M 0,63.733615 C 34.84894,48.296147 64.959645,83.14509 85.899579,78.559698 106.83951,73.974313 135.46666,52.422996 135.46666,52.422996 V 135.46666 H 0 Z"
       id="path22"
       sodipodi:nodetypes="cscccc" /><g
       id="g10"
       style="display:inline"
       inkscape:label="Montagnes"><path
         id="path10"
         style="opacity:1;fill:#72867d;fill-opacity:1;stroke:none;stroke-width:1.32292;stroke-opacity:1"
         d="M 47.46842 48.96962 C 45.804511 50.404584 42.586459 52.733779 39.98929 51.931713 C 37.332521 51.11124 33.856607 50.036733 31.093192 50.341629 C 28.917786 54.320236 26.817211 58.516376 25.830981 61.496504 C 23.345173 69.007967 14.374217 77.708679 9.294523 90.786189 C 35.483755 95.843945 52.925483 85.02382 76.27648 90.380529 C 76.27648 90.380529 63.528805 70.467396 62.042724 69.170454 C 60.556642 67.873511 53.444815 57.875933 51.931713 54.687617 C 51.415405 53.599681 49.615793 51.39823 47.46842 48.96962 z " /><path
         id="path5"
         style="opacity:1;fill:#5b6a65;fill-opacity:1;stroke:none;stroke-width:1.323;stroke-linejoin:miter;stroke-dasharray:none;stroke-opacity:1"
         d="M 86.767829 40.829032 C 84.354358 40.82268 80.806549 42.954096 77.512064 44.593143 C 75.849329 45.420374 74.16158 45.104576 72.78212 44.481005 C 69.348471 48.297944 65.865377 51.76535 62.044274 54.586332 C 54.871252 59.881912 47.147541 73.85106 42.853198 81.788288 C 67.19334 82.346599 90.885003 81.896244 111.37511 76.465616 C 108.18679 70.143018 98.633651 56.76588 94.730651 52.742516 C 92.141049 50.073054 90.146716 45.545591 87.234984 40.859521 C 87.084578 40.839318 86.928727 40.829455 86.767829 40.829032 z " /><path
         id="path17"
         style="opacity:1;fill:none;fill-opacity:1;stroke:#000000;stroke-width:1.32299992;stroke-opacity:1;stroke-dasharray:none;stroke-linecap:square"
         d="m 31.093192,50.341629 c -2.175406,3.978607 -4.275981,8.174747 -5.262211,11.154875 -2.485808,7.511463 -11.456764,16.212175 -16.536458,29.289685 m 66.981957,-0.40566 c 0,0 -12.747675,-19.913133 -14.233756,-21.210075 C 60.556642,67.873511 53.444815,57.875933 51.931713,54.687617 51.415405,53.599681 49.615793,51.39823 47.46842,48.96962"
         sodipodi:nodetypes="csccssc" /><path
         style="opacity:1;fill:#cdd4db;fill-opacity:1;stroke:none;stroke-width:1.323;stroke-linejoin:bevel;stroke-dasharray:none;stroke-opacity:1"
         d="M 28.316594,51.391375 C 30.207968,44.79858 37.233079,35.6119 37.503274,35.6119 c 0.270198,0 6.430677,5.349891 7.457424,7.457422 1.026748,2.107533 3.620633,4.863539 3.620633,4.863539 0,0 -4.917575,5.133731 -8.592249,3.998907 -3.674671,-1.134825 -8.916485,-2.756003 -11.672488,-0.540393 z"
         id="path2" /><path
         style="opacity:1;fill:none;fill-opacity:1;stroke:#000000;stroke-width:1.323;stroke-linejoin:bevel;stroke-dasharray:none;stroke-opacity:1"
         d="M 28.316594,51.391375 C 30.207968,44.79858 37.233079,35.6119 37.503274,35.6119 c 0.270198,0 6.430677,5.349891 7.457424,7.457422 1.026748,2.107533 3.620633,4.863539 3.620633,4.863539 0,0 -4.917575,5.133731 -8.592249,3.998907 -3.674671,-1.134825 -8.916485,-2.756003 -11.672488,-0.540393 z"
         id="path18" /><path
         id="path19"
         style="opacity:1;fill:none;fill-opacity:1;stroke:#000000;stroke-width:1.32291665;stroke-linejoin:miter;stroke-dasharray:none;stroke-opacity:1;stroke-linecap:square"
         d="M 111.37511,76.465616 C 108.18679,70.143018 98.633651,56.76588 94.730651,52.742516 92.141049,50.073054 90.146716,45.545591 87.234984,40.859521 M 72.78212,44.481005 C 69.348471,48.297944 65.865377,51.76535 62.044274,54.586332 54.871252,59.881912 47.147541,73.85106 42.853198,81.788288"
         sodipodi:nodetypes="csccsc" /><path
         style="opacity:1;fill:#cdd4db;fill-opacity:1;stroke:none;stroke-width:1.323;stroke-linejoin:bevel;stroke-dasharray:none;stroke-opacity:1"
         d="M 90.731987,41.988536 C 89.056767,38.097708 81.437225,31.61299 81.437225,31.61299 c 0,0 -3.390122,4.076602 -4.746633,4.974574 -1.356508,0.897972 -6.992715,5.731735 -6.992715,5.731735 0,0 3.974002,4.184163 7.814265,2.273586 3.84026,-1.910577 8.024426,-4.489857 10.355331,-3.57278 2.330905,0.917078 2.864514,0.968431 2.864514,0.968431 z"
         id="path6" /><path
         style="opacity:1;fill:none;fill-opacity:1;stroke:#000000;stroke-width:1.323;stroke-linejoin:bevel;stroke-dasharray:none;stroke-opacity:1"
         d="M 90.731987,41.988536 C 89.056767,38.097708 81.437225,31.61299 81.437225,31.61299 c 0,0 -3.390122,4.076602 -4.746633,4.974574 -1.356508,0.897972 -6.992715,5.731735 -6.992715,5.731735 0,0 3.974002,4.184163 7.814265,2.273586 3.84026,-1.910577 8.024426,-4.489857 10.355331,-3.57278 2.330905,0.917078 2.864514,0.968431 2.864514,0.968431 z"
         id="path20" /></g><g
       id="g20"
       inkscape:label="fond"><path
         id="path12"
         style="opacity:1;fill:#c4c4c4;stroke:none;stroke-width:1.323;stroke-linejoin:miter;stroke-dasharray:none;stroke-opacity:1;fill-opacity:1"
         d="M 80.248362,69.170311 C 77.762554,43.933959 68.629913,43.879912 64.631003,43.609715 60.632096,43.339519 48.365174,41.286025 47.554586,69.170311 h -2.32369 c 1.188863,-29.88374 13.07751,-28.586797 19.346068,-28.586797 6.268559,0 18.427401,3.350445 18.265283,28.586797 z"
         sodipodi:nodetypes="csccscc" /><path
         style="display:inline;opacity:1;fill:#416b9d;stroke:none;stroke-width:1.323;stroke-linejoin:bevel;stroke-dasharray:none;stroke-opacity:1;fill-opacity:1"
         d="m 47.554586,69.170311 c 0.810588,-27.884286 13.07751,-25.830792 17.076417,-25.560596 3.99891,0.270197 13.131551,0.324244 15.617359,25.560596"
         id="path13" /><path
         style="display:inline;opacity:1;fill:#416b9d;stroke:none;stroke-width:1.323;stroke-linejoin:bevel;stroke-dasharray:none;stroke-opacity:1;fill-opacity:1"
         d="m 72.142466,55.66048 c 11.618449,-4.377185 14.266375,-1.134825 13.293669,2.21561 -0.972709,3.350437 -6.21452,5.241814 -9.781114,5.025657"
         id="path14" /><path
         id="path15"
         style="display:inline;opacity:1;fill:#c29935;stroke:none;stroke-width:1.323;stroke-linejoin:bevel;stroke-dasharray:none;stroke-opacity:1;fill-opacity:1"
         d="m 62.361354,83.598799 -2.864085,4.377182 c 0,0 2.485808,0.75655 3.728712,0.75655 1.242904,0 3.674673,-1.026745 3.674673,-1.026745 l -2.539846,-3.89083 c 0,0 3.728712,-2.918124 0.972706,-5.133734 -2.756003,-2.21561 -4.485262,0.216156 -4.755457,1.621179 -0.270197,1.405022 1.783297,3.296398 1.783297,3.296398 z M 42.853165,69.170311 H 87.327507 V 94.406664 H 42.853165 Z" /><path
         style="display:inline;opacity:1;fill:#000000;stroke:none;stroke-width:1.323;stroke-linejoin:bevel;stroke-dasharray:none;stroke-opacity:1;fill-opacity:1"
         d="m 62.361354,83.598799 -2.864085,4.377182 c 0,0 2.485808,0.75655 3.728712,0.75655 1.242904,0 3.674673,-1.026745 3.674673,-1.026745 l -2.539846,-3.89083 c 0,0 3.728712,-2.918124 0.972706,-5.133734 -2.756003,-2.21561 -4.485262,0.216156 -4.755457,1.621179 -0.270197,1.405022 1.783297,3.296398 1.783297,3.296398 z"
         id="path16" /></g><rect
       style="display:inline;opacity:1;fill:none;stroke:#000000;stroke-width:1.323;stroke-linejoin:bevel;stroke-dasharray:none;stroke-opacity:1"
       id="rect2"
       width="44.474342"
       height="25.236353"
       x="42.853165"
       y="69.170311" /><path
       style="display:inline;opacity:1;fill:none;stroke:#000000;stroke-width:1.323;stroke-linejoin:bevel;stroke-dasharray:none;stroke-opacity:1"
       d="m 45.230896,69.170311 c 1.188863,-29.88374 13.07751,-28.586797 19.346068,-28.586797 6.268559,0 18.427401,3.350445 18.265283,28.586797"
       id="path3" /><path
       style="display:inline;opacity:1;fill:none;stroke:#000000;stroke-width:1.323;stroke-linejoin:bevel;stroke-dasharray:none;stroke-opacity:1"
       d="m 47.554586,69.170311 c 0.810588,-27.884286 13.07751,-25.830792 17.076417,-25.560596 3.99891,0.270197 13.131551,0.324244 15.617359,25.560596"
       id="path4" /><path
       style="display:inline;opacity:1;fill:none;stroke:#000000;stroke-width:1.323;stroke-linejoin:round;stroke-dasharray:none;stroke-opacity:1"
       d="m 62.361354,83.598799 -2.864085,4.377182 c 0,0 2.485808,0.75655 3.728712,0.75655 1.242904,0 3.674673,-1.026745 3.674673,-1.026745 l -2.539846,-3.89083 c 0,0 3.728712,-2.918124 0.972706,-5.133734 -2.756003,-2.21561 -4.485262,0.216156 -4.755457,1.621179 -0.270197,1.405022 1.783297,3.296398 1.783297,3.296398 z"
       id="path7" /><path
       style="display:inline;opacity:1;fill:none;stroke:#000000;stroke-width:1.323;stroke-linejoin:bevel;stroke-dasharray:none;stroke-opacity:1"
       d="m 72.142466,55.66048 c 11.618449,-4.377185 14.266375,-1.134825 13.293669,2.21561 -0.972709,3.350437 -6.21452,5.241814 -9.781114,5.025657"
       id="path8" /><path
       style="display:inline;opacity:1;fill:none;stroke:#000000;stroke-width:1.323;stroke-linejoin:bevel;stroke-dasharray:none;stroke-opacity:1"
       d="m 75.979257,59.686409 c 7.403383,-3.296399 9.631736,-3.290864 9.631736,-3.290864"
       id="path9" /><path
       style="opacity:1;fill:#416b9d;fill-opacity:1;stroke:#000000;stroke-width:1.32291665;stroke-linecap:round;stroke-linejoin:bevel;stroke-dasharray:none;stroke-opacity:1"
       d="m 70.309263,50.32462 c 0.08632,-0.01564 0.308303,-0.129172 0.382116,0 0.03138,0.125523 -0.0013,0.03112 0.05732,0.133739 0.01543,0.02701 0.07432,0.135847 0.03821,0.171952 -0.0045,0.0045 -0.01461,-0.0045 -0.0191,0 -0.06461,0.06461 -0.01191,0.07668 -0.114633,0.133742 -0.09117,0.05065 -0.38445,0.05638 -0.477647,0.0191 -0.02956,-0.01183 -0.05095,-0.03821 -0.07642,-0.05732 -0.15312,-0.11484 -0.152845,-0.132107 -0.152845,-0.305692 0,-0.0191 -0.01529,-0.04585 0,-0.05732 0.04076,-0.03057 0.101897,0 0.152845,0 0.02548,0 0.05136,0.0046 0.07642,0 0.04562,-0.0083 0.09292,-0.06019 0.133742,-0.03821 0.06065,0.03266 0.0733,0.116843 0.114636,0.171953 0.02984,0.03979 0.08572,0.05505 0.114633,0.09553 0.01992,0.02791 0.02119,0.06575 0.03821,0.09553 0.0089,0.01564 0.03152,0.02148 0.03821,0.03821 3.7e-5,9e-5 0.02836,0.220019 0.0191,0.229269 -0.01791,0.01791 -0.179208,0.03821 -0.210161,0.03821"
       id="path21" /></g></svg>
