<?xml version="1.0" encoding="UTF-8" standalone="no"?>
<!-- Created with Inkscape (http://www.inkscape.org/) -->

<svg
   width="512"
   height="512"
   viewBox="0 0 135.46666 135.46667"
   version="1.1"
   id="svg1"
   xml:space="preserve"
   inkscape:version="1.4.3 (0d15f75, 2025-12-25)"
   sodipodi:docname="pifieux.svg"
   inkscape:export-filename="pifieux.png"
   inkscape:export-xdpi="96"
   inkscape:export-ydpi="96"
   xmlns:inkscape="http://www.inkscape.org/namespaces/inkscape"
   xmlns:sodipodi="http://sodipodi.sourceforge.net/DTD/sodipodi-0.dtd"
   xmlns:xlink="http://www.w3.org/1999/xlink"
   xmlns="http://www.w3.org/2000/svg"
   xmlns:svg="http://www.w3.org/2000/svg"><sodipodi:namedview
     id="namedview1"
     pagecolor="#505050"
     bordercolor="#eeeeee"
     borderopacity="1"
     inkscape:showpageshadow="0"
     inkscape:pageopacity="0"
     inkscape:pagecheckerboard="0"
     inkscape:deskcolor="#505050"
     inkscape:document-units="px"
     inkscape:zoom="0.70710678"
     inkscape:cx="-395.27269"
     inkscape:cy="342.23968"
     inkscape:window-width="2880"
     inkscape:window-height="1676"
     inkscape:window-x="-12"
     inkscape:window-y="-12"
     inkscape:window-maximized="1"
     inkscape:current-layer="layer1" /><defs
     id="defs1"><linearGradient
       id="linearGradient38"
       inkscape:collect="always"><stop
         style="stop-color:#373737;stop-opacity:1;"
         offset="0"
         id="stop38" /><stop
         style="stop-color:#424242;stop-opacity:1;"
         offset="1"
         id="stop39" /></linearGradient><linearGradient
       inkscape:collect="always"
       xlink:href="#linearGradient38"
       id="linearGradient39"
       x1="0"
       y1="67.73333"
       x2="135.46666"
       y2="67.73333"
       gradientUnits="userSpaceOnUse" /></defs><g
     inkscape:label="Calque 1"
     inkscape:groupmode="layer"
     id="layer1"><rect
       style="opacity:1;fill:url(#linearGradient39);fill-opacity:1;stroke:none;stroke-width:1.323;stroke-linecap:round;stroke-linejoin:round;stroke-opacity:1"
       id="rect38"
       width="135.46666"
       height="135.46666"
       x="0"
       y="0" /><path
       d="m 75.335452,80.065396 c -9.894386,2.682486 -20.391177,6.172926 -28.381213,-3.624585 -0.379585,6.45026 0.141231,14.638672 2.262395,25.049119 3.906801,3.71915 16.300322,7.97922 24.378873,-1.833999 -0.522463,-5.264822 0.701257,-12.890102 1.739945,-19.590535 z"
       style="display:inline;opacity:1;fill:#808080;fill-opacity:1;stroke:#000000;stroke-width:1.323;stroke-linecap:round;stroke-linejoin:round;stroke-opacity:1"
       id="path30" /><path
       d="m 53.67786,55.718045 c -0.09178,0.09265 -0.177566,0.192637 -0.257866,0.30024 -2.425652,3.250377 -5.805961,9.21072 -6.465755,20.422526 7.990036,9.797511 18.486827,6.307071 28.381213,3.624585 0.93645,-6.040906 1.727953,-11.347145 0.858346,-13.19506 -0.119304,-0.25352 -0.303379,-0.541579 -0.544153,-0.857312 C 68.742906,67.086352 61.034193,64.160835 53.67786,55.718045 Z"
       style="display:inline;opacity:1;fill:#c0c0c0;stroke-width:1.323;stroke-linecap:round;stroke-linejoin:round"
       id="path29" /><path
       id="path16"
       style="display:inline;opacity:1;fill:#cca839;fill-opacity:1;stroke:none;stroke-width:1.323;stroke-linecap:round;stroke-linejoin:round;stroke-opacity:1"
       d="m 74.702933,84.281159 c 5.79341,0.779274 9.056871,0.259158 11.316862,-1.096511 2.264377,-1.358299 3.521386,-3.555398 5.306412,-6.124753 -0.121589,-0.77006 -3.617291,-2.664863 -9.163781,-2.36368 -1.84883,0.100394 -3.925459,0.445152 -6.181018,1.156518"
       sodipodi:nodetypes="cscsc" /><path
       id="path1"
       style="display:inline;opacity:1;fill:none;stroke:#000000;stroke-width:1.323;stroke-linecap:round;stroke-linejoin:round;stroke-opacity:1"
       d="m 75.649792,66.012851 c 0.240774,0.315733 0.424746,0.603851 0.54405,0.857371 1.834155,3.89758 -3.591885,22.774089 -2.598385,32.785515" /><path
       id="path23"
       style="display:inline;opacity:1;fill:none;stroke:#000000;stroke-width:1.323;stroke-linecap:round;stroke-linejoin:round;stroke-opacity:1"
       d="m 49.216484,101.48989 c -5.808157,-28.505819 0.382117,-40.3514 4.203271,-45.471749 0.0803,-0.107603 0.166474,-0.207613 0.258255,-0.300264" /><path
       id="path27"
       style="display:inline;opacity:1;fill:#ffffff;fill-opacity:1;stroke:none;stroke-width:1.323;stroke-linecap:round;stroke-linejoin:round;stroke-opacity:1"
       d="m 54.395129,81.931949 c 0,0 -2.106848,6.075081 -2.602942,6.422347 2.000911,1.058333 2.265495,1.901692 2.265495,1.901692 l -1.289844,3.555339 c 0,0 3.075264,2.075842 3.14141,3.051493 l 8.293034,-0.328145 c 0,-0.677995 3.481441,-3.798218 3.481441,-3.798218 -0.01654,-0.496094 -1.207161,-1.736328 -1.207161,-1.736328 0,0 1.719791,-1.339453 3.009635,-1.653646 0,0 0.03294,-3.489136 -2.702677,-7.113261 -4.262082,0.851249 -8.472158,1.116236 -12.388391,-0.301273 z" /><path
       style="display:inline;opacity:1;fill:none;stroke:#000000;stroke-width:1.323;stroke-linecap:round;stroke-linejoin:round;stroke-opacity:1"
       d="m 46.954016,76.440632 c 7.994201,9.802849 18.498042,6.303875 28.397004,3.620821"
       id="path2"
       sodipodi:nodetypes="cc" /><path
       style="display:inline;opacity:1;fill:none;stroke:#000000;stroke-width:1.323;stroke-linecap:round;stroke-linejoin:round;stroke-opacity:1"
       d="m 74.702701,84.281369 c 11.598063,1.56006 13.057124,-2.087592 16.623718,-7.221326"
       id="path4" /><path
       id="path21"
       style="display:inline;opacity:1;fill:#ff7c37;fill-opacity:1;stroke:none;stroke-width:1.323;stroke-linecap:round;stroke-linejoin:round;stroke-opacity:1"
       d="m 94.026301,84.137499 c 0,0 -1.835547,0.463021 -2.38125,1.885156 0.577969,1.318519 2.080493,2.195732 2.080493,2.195732 0,0 1.590258,-0.485699 2.087211,-1.941484 -0.303996,-0.987986 -1.786228,-2.139229 -1.786454,-2.139404 z" /><path
       style="display:inline;opacity:1;fill:#764448;fill-opacity:1;stroke:#000000;stroke-width:1.323;stroke-linecap:round;stroke-linejoin:round;stroke-opacity:1"
       d="m 89.18223,77.630686 c 3.273107,2.620745 4.844071,6.506813 4.844071,6.506813 0,0 -1.835547,0.463021 -2.38125,1.885156 -2.811198,-1.984375 -5.265337,-4.924884 -5.782864,-7.671426"
       id="path20" /><path
       style="display:inline;opacity:1;fill:none;stroke:#000000;stroke-width:1.323;stroke-linecap:round;stroke-linejoin:round;stroke-opacity:1"
       d="M 75.981583,75.852561 C 85.003819,73.007095 91.1643,76.033296 91.326419,77.060043 83.652838,79.275654 75.413847,79.65588 75.413847,79.65588"
       id="path3" /><g
       id="g34"><path
         id="path31"
         style="opacity:1;fill:#808080;stroke:none;stroke-width:1.323;stroke-linecap:round;stroke-linejoin:round;stroke-opacity:1;fill-opacity:1"
         d="M 50.789147 47.122188 C 49.128581 47.198764 48.154191 48.288497 49.063671 49.598522 C 62.616036 70.143333 78.309012 69.742872 88.300036 58.713728 C 86.43568 55.714547 82.16656 55.417289 82.16656 55.417289 L 81.973807 55.373364 C 81.953622 55.407505 81.933717 55.441762 81.913862 55.4762 C 81.27795 56.579179 80.815738 57.832574 80.815738 59.14626 C 75.867575 61.828108 66.225224 61.902109 55.309285 52.283113 L 55.345458 49.155139 C 53.78707 47.61593 52.080699 47.062628 50.789147 47.122188 z M 81.913862 55.4762 C 80.606361 55.776392 79.388271 55.992776 78.210212 56.161946 C 79.385312 56.000464 80.613325 55.774794 81.913862 55.4762 z " /><path
         id="path32"
         style="opacity:1;fill:#ffffff;stroke:none;stroke-width:1.323;stroke-linecap:round;stroke-linejoin:round;stroke-opacity:1;fill-opacity:1"
         d="M 81.913862 55.4762 C 70.433752 58.111966 64.429261 55.736501 55.363028 47.662723 L 55.309285 52.283113 C 66.225224 61.902109 75.867575 61.828108 80.815738 59.14626 C 80.815738 57.832574 81.27795 56.579179 81.913862 55.4762 z " /><path
         id="path37"
         style="opacity:1;fill:#808080;stroke:none;stroke-width:1.323;stroke-linecap:round;stroke-linejoin:round;stroke-opacity:1;fill-opacity:1"
         d="M 55.417289 43.042333 L 55.363028 47.662723 C 64.429261 55.736501 70.433752 58.111966 81.913862 55.4762 C 83.318324 53.040182 85.571003 51.337434 85.571003 51.337434 C 79.360615 55.522677 64.210092 52.240501 55.417289 43.042333 z " /><path
         id="path35"
         style="opacity:1;fill:#808080;stroke:none;stroke-width:1.323;stroke-linecap:round;stroke-linejoin:round;stroke-opacity:1;fill-opacity:1"
         d="m 55.417303,43.042302 c 19.346069,-3.323415 31.829148,1.296946 30.153931,8.295034 -6.210389,4.185243 -21.361128,0.903135 -30.153931,-8.295034 z"
         sodipodi:nodetypes="ccc" /></g><path
       style="display:inline;opacity:1;fill:none;stroke:#000000;stroke-width:1.323;stroke-linecap:round;stroke-linejoin:round;stroke-opacity:1"
       d="m 82.166757,55.417303 c 0,0 4.269105,0.297216 6.133461,3.296397 -9.991024,11.029144 -25.684216,11.429712 -39.236581,-9.115099 -1.644151,-2.368252 2.868131,-4.016451 6.461745,-0.260719"
       id="path5"
       sodipodi:nodetypes="cc" /><path
       style="display:inline;opacity:1;fill:none;stroke:#000000;stroke-width:1.323;stroke-linecap:round;stroke-linejoin:round;stroke-opacity:1"
       d="m 55.309224,52.283023 c 10.915939,9.618996 20.558387,9.544841 25.50655,6.862993 0,-4.215067 4.755459,-7.80868 4.755459,-7.80868 -6.210388,4.185243 -21.361127,0.903135 -30.15393,-8.295033 z"
       id="path6"
       sodipodi:nodetypes="ccccc" /><path
       style="display:inline;opacity:1;fill:none;stroke:#000000;stroke-width:1.323;stroke-linecap:round;stroke-linejoin:round;stroke-opacity:1"
       d="m 55.417304,43.042302 c 19.346068,-3.323415 31.829147,1.296946 30.15393,8.295034"
       id="path7" /><path
       style="display:inline;opacity:1;fill:none;stroke:#000000;stroke-width:1.323;stroke-linecap:round;stroke-linejoin:round;stroke-opacity:1"
       d="m 55.363263,47.662663 c 9.132641,8.132916 15.158024,10.483625 26.803495,7.754641"
       id="path8" /><path
       style="display:inline;opacity:1;fill:#fa0001;fill-opacity:1;stroke:#000000;stroke-width:1.323;stroke-linecap:round;stroke-linejoin:round;stroke-opacity:1"
       d="m 57.564265,87.099652 c -0.6879,7.739322 -2.173983,11.359954 -2.173983,11.359954 2.188593,1.594164 4.917578,5.484984 4.917578,5.484984 2.573415,-4.295402 4.441946,-5.068003 4.404203,-5.05267 -1.810317,-7.997816 -1.761078,-11.185588 -1.761078,-11.185588"
       id="path10"
       sodipodi:nodetypes="ccccc" /><path
       style="display:inline;opacity:1;fill:#fa0001;fill-opacity:1;stroke:#000000;stroke-width:1.323;stroke-linecap:round;stroke-linejoin:round;stroke-opacity:1"
       d="m 60.578409,82.933264 c -2.911509,-0.193813 -5.458322,6.015426 0.242824,5.285893 5.701147,-0.72953 5.043437,-4.578749 -0.242824,-5.285893 z"
       id="path9" /><path
       style="display:inline;opacity:1;fill:none;stroke:#000000;stroke-width:1.323;stroke-linecap:round;stroke-linejoin:round;stroke-opacity:1"
       d="m 65.835614,64.852451 c 0.461436,2.30436 -0.704017,4.979168 -0.704017,4.979168"
       id="path11" /><path
       style="display:inline;opacity:1;fill:none;stroke:#000000;stroke-width:1.323;stroke-linecap:round;stroke-linejoin:round;stroke-opacity:1"
       d="m 53.935611,63.947039 c 8.338721,8.801165 15.949244,7.465199 22.480214,3.615325"
       id="path12"
       sodipodi:nodetypes="cc" /><path
       style="display:inline;opacity:1;fill:none;stroke:#000000;stroke-width:1.323;stroke-linecap:round;stroke-linejoin:round;stroke-opacity:1"
       d="m 58.712057,71.169024 c 6.290238,-0.76155 12.589457,-1.303983 12.589457,-1.303983"
       id="path13" /><path
       style="display:inline;opacity:1;fill:none;stroke:#000000;stroke-width:1.323;stroke-linecap:round;stroke-linejoin:round;stroke-opacity:1"
       d="m 60.660845,75.12392 c -0.133741,3.935788 1.012606,3.209769 2.082531,0.09553 1.069922,-3.114241 0.03821,-3.419935 -0.917078,-3.037819 -0.955289,0.382117 -1.069925,1.299194 -1.165453,2.942291 z"
       id="path14" /><path
       style="display:inline;opacity:1;fill:none;stroke:#000000;stroke-width:1.323;stroke-linecap:round;stroke-linejoin:round;stroke-opacity:1"
       d="m 67.214127,74.053995 c 0,4.566283 0.689057,4.074319 2.388222,-0.05732 1.699165,-4.131638 0.461775,-4.37805 -0.829482,-3.583747 -1.291259,0.794303 -1.520528,0.985361 -1.55874,3.641063 z"
       id="path15" /><path
       style="display:inline;opacity:1;fill:none;fill-opacity:1;stroke:#000000;stroke-width:1.323;stroke-linecap:round;stroke-linejoin:round;stroke-opacity:1"
       d="m 54.395242,81.931893 c 0,0 -2.106961,6.075137 -2.603055,6.422403 2.000911,1.058333 2.265495,1.901692 2.265495,1.901692 l -1.289844,3.555339 c 0,0 3.075072,2.075622 3.141218,3.051273"
       id="path17"
       sodipodi:nodetypes="ccccc" /><path
       id="path19"
       style="display:inline;opacity:1;fill:none;fill-opacity:1;stroke:#000000;stroke-width:1.323;stroke-linecap:round;stroke-linejoin:round;stroke-opacity:1"
       d="m 66.783645,82.233166 c 2.735625,3.624125 2.702552,7.113317 2.702552,7.113317 -1.289844,0.314193 -3.009635,1.653646 -3.009635,1.653646 0,0 1.190625,1.240234 1.207161,1.736328 0,0 -3.481669,3.119968 -3.481669,3.797963"
       sodipodi:nodetypes="ccccc" /><path
       style="display:inline;opacity:1;fill:#7c7c7c;fill-opacity:1;stroke:none;stroke-width:1.323;stroke-linecap:round;stroke-linejoin:round;stroke-opacity:1"
       d="m 95.438607,84.751166 c 1.894271,-1.76565 0.806818,-2.198291 1.3447,-3.016806 0.537879,-0.818512 1.297927,-1.625333 0.830204,-2.607548 -0.46772,-0.982215 -1.730571,-2.455537 0.233863,-5.215096 1.96443,-2.759557 -1.099148,-2.782943 -1.730571,-0.912056 -0.631426,1.870885 -2.315223,3.999018 -0.713277,6.23239 1.601949,2.233372 -1.216075,1.099145 -0.537879,2.549083 0.678195,1.449938 -0.783434,1.625333 0.57296,2.970033 z"
       id="path22" /></g></svg>
