<?xml version="1.0" encoding="UTF-8" standalone="no"?>
<!-- Created with Inkscape (http://www.inkscape.org/) -->

<svg
   width="512"
   height="512"
   viewBox="0 0 135.46666 135.46667"
   version="1.1"
   id="svg1"
   xml:space="preserve"
   inkscape:version="1.4.3 (0d15f75, 2025-12-25)"
   sodipodi:docname="pigeama.svg"
   inkscape:export-filename="pigeama.png"
   inkscape:export-xdpi="96"
   inkscape:export-ydpi="96"
   xmlns:inkscape="http://www.inkscape.org/namespaces/inkscape"
   xmlns:sodipodi="http://sodipodi.sourceforge.net/DTD/sodipodi-0.dtd"
   xmlns:xlink="http://www.w3.org/1999/xlink"
   xmlns="http://www.w3.org/2000/svg"
   xmlns:svg="http://www.w3.org/2000/svg"><sodipodi:namedview
     id="namedview1"
     pagecolor="#505050"
     bordercolor="#eeeeee"
     borderopacity="1"
     inkscape:showpageshadow="0"
     inkscape:pageopacity="0"
     inkscape:pagecheckerboard="0"
     inkscape:deskcolor="#505050"
     inkscape:document-units="px"
     inkscape:zoom="1.7310426"
     inkscape:cx="241.18412"
     inkscape:cy="158.86379"
     inkscape:window-width="2880"
     inkscape:window-height="1676"
     inkscape:window-x="-12"
     inkscape:window-y="-12"
     inkscape:window-maximized="1"
     inkscape:current-layer="layer1" /><defs
     id="defs1"><linearGradient
       id="linearGradient16"
       inkscape:collect="always"><stop
         style="stop-color:#00004e;stop-opacity:1;"
         offset="0"
         id="stop16" /><stop
         style="stop-color:#00006d;stop-opacity:1;"
         offset="1"
         id="stop17" /></linearGradient><linearGradient
       inkscape:collect="always"
       xlink:href="#linearGradient16"
       id="linearGradient17"
       x1="0"
       y1="67.73333"
       x2="135.46666"
       y2="67.73333"
       gradientUnits="userSpaceOnUse" /></defs><g
     inkscape:label="Calque 1"
     inkscape:groupmode="layer"
     id="layer1"><rect
       style="opacity:1;fill:url(#linearGradient17);stroke:none;stroke-width:1.32292;stroke-linejoin:round;stroke-dasharray:none;fill-opacity:1"
       id="rect16"
       width="135.46666"
       height="135.46666"
       x="0"
       y="0" /><g
       id="g98"><path
         style="fill:#ffffff;fill-opacity:1;stroke:#ffffff;stroke-width:1.32292;stroke-linejoin:miter;stroke-dasharray:none;stroke-opacity:1"
         d="m 46.434914,37.092848 4.776446,-0.917077 -3.859368,4.088636 1.375616,-5.846368 1.757733,6.190272 z"
         id="path64" /><path
         style="fill:#e3a3ae;fill-opacity:1;stroke:#e3a3ae;stroke-width:1.32292;stroke-linejoin:miter;stroke-dasharray:none;stroke-opacity:1"
         d="m 23.958645,18.41797 4.776446,-0.917077 -3.859368,4.088636 1.375616,-5.846368 1.757733,6.190272 z"
         id="path20" /><path
         style="fill:#e3a3ae;fill-opacity:1;stroke:#e3a3ae;stroke-width:1.32292;stroke-linejoin:miter;stroke-dasharray:none;stroke-opacity:1"
         d="m 124.2952,85.59588 4.77644,-0.917077 -3.85937,4.088636 1.37562,-5.846368 1.75773,6.190272 z"
         id="use58" /><path
         style="fill:#e3a3ae;fill-opacity:1;stroke:#e3a3ae;stroke-width:1.32292;stroke-linejoin:miter;stroke-dasharray:none;stroke-opacity:1"
         d="m 36.374745,118.22198 4.776446,-0.91708 -3.859368,4.08864 1.375616,-5.84637 1.757733,6.19027 z"
         id="use59" /><path
         style="fill:#e3a3ae;fill-opacity:1;stroke:#e3a3ae;stroke-width:1.32292;stroke-linejoin:miter;stroke-dasharray:none;stroke-opacity:1"
         d="m 33.164974,54.637947 4.776446,-0.917077 -3.859368,4.088636 1.375616,-5.846368 1.757733,6.190272 z"
         id="use60" /><path
         style="fill:#e3a3ae;fill-opacity:1;stroke:#e3a3ae;stroke-width:1.32292;stroke-linejoin:miter;stroke-dasharray:none;stroke-opacity:1"
         d="m 104.54416,20.400393 4.77645,-0.917077 -3.85937,4.088636 1.37562,-5.846368 1.75773,6.190272 z"
         id="use61" /><path
         style="fill:#e3a3ae;fill-opacity:1;stroke:#e3a3ae;stroke-width:1.32292;stroke-linejoin:miter;stroke-dasharray:none;stroke-opacity:1"
         d="m 59.569159,17.381681 4.776446,-0.917077 -3.859368,4.088636 1.375616,-5.846368 1.757733,6.190272 z"
         id="use62" /><path
         style="fill:#e3a3ae;fill-opacity:1;stroke:#e3a3ae;stroke-width:1.32292;stroke-linejoin:miter;stroke-dasharray:none;stroke-opacity:1"
         d="m 103.0157,120.82036 4.77644,-0.91708 -3.85936,4.08864 1.37561,-5.84637 1.75774,6.19027 z"
         id="use63" /><path
         style="fill:#e3a3ae;fill-opacity:1;stroke:#e3a3ae;stroke-width:1.32292;stroke-linejoin:miter;stroke-dasharray:none;stroke-opacity:1"
         d="m 6.722577,78.787651 4.776446,-0.917077 -3.859368,4.088636 1.375616,-5.846368 1.757733,6.190272 z"
         id="use64" /><path
         style="fill:#ffffff;fill-opacity:1;stroke:#ffffff;stroke-width:1.32292;stroke-linejoin:miter;stroke-dasharray:none;stroke-opacity:1"
         d="m 19.829312,47.239946 4.776446,-0.917077 -3.859368,4.088636 1.375616,-5.846368 1.757733,6.190272 z"
         id="use67" /><path
         style="fill:#ffffff;fill-opacity:1;stroke:#ffffff;stroke-width:1.32292;stroke-linejoin:miter;stroke-dasharray:none;stroke-opacity:1"
         d="m 97.620009,66.009998 4.776451,-0.917077 -3.859373,4.088636 1.375616,-5.846368 1.757737,6.190272 z"
         id="use69" /><path
         id="path98"
         style="baseline-shift:baseline;display:inline;overflow:visible;vector-effect:none;fill:#ffffff;enable-background:accumulate;stop-color:#000000;stop-opacity:1"
         d="M 135.46666 87.248937 L 134.90029 87.357457 L 135.46666 87.849417 L 135.46666 87.248937 z " /></g><path
       id="path93"
       style="baseline-shift:baseline;display:inline;overflow:visible;vector-effect:none;fill:#ffffff;enable-background:accumulate;stop-color:#000000;stop-opacity:1"
       d="M 71.894319 102.98234 C 71.937262 102.98409 71.979435 102.98618 72.024027 102.98803 L 72.024027 102.98751 C 71.979853 102.9857 71.936529 102.98403 71.894319 102.98234 z M 76.013447 104.78895 L 73.152123 105.33827 C 73.613599 105.62575 74.431632 105.94702 74.431632 105.94702 L 74.798534 106.07673 L 76.013447 104.78895 z M 70.251008 105.89689 L 67.888879 106.34958 L 69.996243 108.17944 L 69.060383 112.15646 L 71.544986 109.52355 L 74.642471 112.21279 L 73.575353 108.45281 C 73.331367 108.37913 72.201043 108.01054 71.281436 107.24823 C 70.882182 106.91727 70.631175 106.52577 70.400353 106.14856 C 70.349785 106.06592 70.299971 105.98184 70.251008 105.89689 z " /><g
       id="g71"><path
         id="path17"
         style="fill:#662e5f;stroke:none;stroke-width:1.32292;stroke-dasharray:none;fill-opacity:1"
         d="M 72.139265 69.033512 C 72.059642 69.030017 71.979511 69.034616 71.899486 69.048498 C 71.41335 69.132828 70.744785 69.515975 70.176594 69.968338 C 69.896642 69.458488 69.406365 69.149372 68.913622 69.602469 C 68.46358 70.016301 67.742167 70.634192 67.124067 71.219425 C 66.793117 70.8569 66.226281 70.623779 65.576875 70.791544 C 65.02564 70.933945 64.405491 71.290393 63.897908 71.706217 C 63.531518 71.231643 63.000618 70.920915 62.469571 71.156379 C 61.975363 71.375509 61.319992 71.676483 60.747196 71.991987 C 60.446194 71.473021 59.898101 71.038873 59.240828 71.115555 C 58.802147 71.166734 58.344287 71.306928 57.943233 71.500028 C 57.675269 71.094774 57.290351 70.82984 56.835807 70.953808 C 56.05696 71.16622 55.263295 72.035119 54.795104 72.833796 C 54.554478 72.115309 54.020687 71.398936 53.187967 71.385823 C 52.894337 71.381199 52.624404 71.399642 52.380781 71.435432 C 52.694772 70.690897 52.401503 69.96695 50.094616 70.561584 C 49.660543 70.673472 49.293455 70.797869 48.98564 70.930037 C 48.707056 70.483027 48.296091 70.179685 47.757291 70.237572 C 47.371368 70.279035 47.010471 70.451342 46.704642 70.683023 C 46.261301 70.07677 45.507163 69.700149 45.122827 70.359012 C 44.823388 70.872337 45.099809 71.612325 45.54709 72.231766 C 44.701877 72.347942 44.007796 72.757003 44.649987 73.223437 C 45.013464 73.487437 45.449592 73.806748 45.88247 74.097802 C 45.083145 74.421223 44.362871 75.000264 44.420544 75.506501 C 44.475005 75.984545 45.176994 76.611516 45.921227 77.056278 C 45.090103 77.358797 44.319157 77.891493 44.474287 78.24897 C 44.623735 78.593348 45.526145 79.372032 46.401818 79.908817 C 45.423451 80.528328 44.444965 81.641452 44.663423 82.369648 C 44.781587 82.763524 45.104064 83.082554 45.496447 83.307059 C 45.003722 83.672664 44.623115 84.092581 44.623115 84.355574 C 44.623115 84.64861 45.136456 85.213107 45.759997 85.699161 C 44.553169 85.827183 43.311157 86.21855 43.393733 86.652074 C 43.468222 87.04314 44.101335 87.485657 44.802433 87.777587 C 44.39109 88.029936 44.130479 88.43097 44.312023 89.002835 C 44.467668 89.493113 44.869141 89.839717 45.340384 90.061168 C 45.161352 90.161757 44.981382 90.272375 44.805533 90.389314 C 44.985623 90.453798 45.201519 90.58857 45.46079 90.81306 C 46.05444 91.327074 46.644801 91.641403 47.167663 91.814033 C 46.669236 92.556926 46.884359 93.661313 49.405252 93.595836 C 50.43848 93.568999 51.330952 93.468409 52.051603 93.328669 C 52.430958 93.965839 53.25769 94.541765 54.055098 94.32344 C 54.034337 94.81819 54.324663 95.168244 55.120149 95.095486 C 56.095251 95.0063 57.669564 94.53534 58.878059 94.010281 C 59.508208 94.918501 60.824066 95.830441 61.942472 95.595714 C 62.473834 95.484193 63.047281 95.222591 63.586299 94.891881 C 63.660782 95.424613 63.9286 95.860353 64.428108 95.987422 C 65.217338 96.18819 67.032295 95.760941 68.33588 95.113056 C 68.6432 96.014462 69.308328 96.670719 70.210701 95.90629 C 70.892648 95.328589 71.584321 94.660304 72.137198 94.029918 C 72.807595 94.86462 73.978887 95.351169 75.00679 94.190632 C 75.612554 93.506706 75.906203 92.784224 75.994844 92.134944 C 76.422665 92.061968 76.7899 91.725972 76.884195 90.98876 C 77.022809 89.905055 76.635921 88.568372 76.136437 87.641161 C 76.888497 87.292038 77.561194 86.643955 77.235595 86.152363 C 76.848614 85.568099 76.265519 84.574278 75.800023 84.0574 C 77.001434 82.20633 78.036084 80.277021 77.719286 79.09853 C 77.955417 78.707419 78.139743 78.094625 78.222098 77.181851 C 78.406976 75.132786 77.9591 73.914927 77.359101 73.250825 C 77.725085 72.89729 77.861284 72.339905 77.411295 71.615783 C 77.118827 71.145146 76.701017 70.848246 76.250642 70.682506 C 76.638561 70.183508 76.698206 69.661439 75.965905 69.467594 C 75.272804 69.284126 74.289064 69.56764 73.449779 69.974023 C 73.224346 69.484041 72.696629 69.057973 72.139265 69.033512 z M 44.805533 90.389314 C 44.317834 90.214685 44.089686 90.556654 43.951322 91.036819 C 44.210937 90.811756 44.50256 90.590789 44.805533 90.389314 z M 43.951322 91.036819 C 43.146702 91.734356 42.653385 92.469518 43.11003 92.772114 C 43.744782 93.192732 43.704164 91.894534 43.951322 91.036819 z " /><path
         id="path18"
         style="fill:#994568;fill-opacity:1;stroke:none;stroke-width:1.32292;stroke-dasharray:none"
         d="M 64.847204 43.231469 C 49.932358 43.663785 44.648941 52.78303 45.783768 70.021565 C 46.108225 70.074399 46.455624 70.342499 46.704642 70.683023 C 47.010471 70.451342 47.371368 70.279035 47.757291 70.237572 C 48.296091 70.179685 48.707056 70.483027 48.98564 70.930037 C 49.293455 70.797869 49.660543 70.673472 50.094616 70.561584 C 52.401503 69.96695 52.694772 70.690897 52.380781 71.435432 C 52.624404 71.399642 52.894337 71.381199 53.187967 71.385823 C 54.020687 71.398936 54.554478 72.115309 54.795104 72.833796 C 55.263295 72.035119 56.05696 71.16622 56.835807 70.953808 C 57.290351 70.82984 57.675269 71.094774 57.943233 71.500028 C 58.344287 71.306928 58.802147 71.166734 59.240828 71.115555 C 59.898101 71.038873 60.446194 71.473021 60.747196 71.991987 C 61.319992 71.676483 61.975363 71.375509 62.469571 71.156379 C 63.000618 70.920915 63.531518 71.231643 63.897908 71.706217 C 64.405491 71.290393 65.02564 70.933945 65.576875 70.791544 C 66.226281 70.623779 66.793117 70.8569 67.124067 71.219425 C 67.742167 70.634192 68.46358 70.016301 68.913622 69.602469 C 69.406365 69.149372 69.896642 69.458488 70.176594 69.968338 C 70.744785 69.515975 71.41335 69.132828 71.899486 69.048498 C 72.539687 68.937443 73.192141 69.414044 73.449779 69.974023 C 74.289064 69.56764 75.272804 69.284126 75.965905 69.467594 C 76.479807 68.452636 76.925427 67.301898 77.286238 66.06315 C 80.259362 66.716973 83.94138 66.050319 84.031046 63.509818 C 84.130946 60.679307 82.963204 59.043396 78.317182 59.029471 C 78.414878 51.077821 74.897709 42.94015 64.847204 43.231469 z " /><path
         id="path1"
         style="fill:none;stroke:#e3a3ae;stroke-width:1.32292;stroke-dasharray:none;stroke-opacity:1"
         d="M 77.285821 66.063354 C 76.92501 67.302086 76.479645 68.452572 75.965748 69.467519 " /><path
         id="path19"
         style="fill:none;stroke:#e3a3ae;stroke-width:1.32292;stroke-dasharray:none;stroke-opacity:1"
         d="M 45.783929 70.021761 C 44.649102 52.783226 49.932314 43.663756 64.84716 43.23144 C 74.897692 42.940121 78.414816 51.077816 78.317068 59.029473 " /><path
         style="fill:none;stroke:#010101;stroke-width:1.32292;stroke-dasharray:none"
         d="m 69.791756,52.445141 c 1.756278,0.148609 3.134281,-0.148608 3.715203,-0.472844"
         id="path3" /><path
         style="fill:none;stroke:#e3a3ae;stroke-width:1.32292;stroke-dasharray:none;stroke-opacity:1"
         d="m 58.425468,79.766622 c 0.783339,2.388224 2.732127,4.585388 2.732127,4.585388"
         id="path4" /><path
         style="fill:none;stroke:#e3a3ae;stroke-width:1.32292;stroke-dasharray:none;stroke-opacity:1"
         d="m 64.883222,85.020712 c -2.483752,-1.375616 -3.095138,-1.184558 -3.725627,-0.668702 -0.630491,0.515855 -0.974394,3.114241 -0.974394,3.114241"
         id="path5" /><path
         style="fill:none;stroke:#e3a3ae;stroke-width:1.32292;stroke-dasharray:none;stroke-opacity:1"
         d="m 61.157595,84.35201 c 0,0 0.783336,2.006108 1.509356,2.770338"
         id="path6" /><path
         style="fill:none;stroke:#e3a3ae;stroke-width:1.32292;stroke-dasharray:none;stroke-opacity:1"
         d="m 76.069655,40.666648 c 0.544515,-0.29614 1.910577,-0.410773 2.015659,-0.315245 0.105082,0.09553 0.171953,4.518517 0.315246,4.594939 0.143293,0.07643 1.356511,-0.191056 2.646151,-0.974394"
         id="path7" /><path
         style="fill:none;stroke:#e3a3ae;stroke-width:1.32292;stroke-dasharray:none;stroke-opacity:1"
         d="m 83.558268,36.922352 c 1.634691,-1.56714 2.148062,-2.121043 2.29667,-2.012963 0.148609,0.108077 0.06585,6.126433 0.391785,6.376636 0.835882,0.641663 3.120771,-2.688455 3.120771,-2.688455"
         id="path8"
         sodipodi:nodetypes="cssc" /><path
         style="fill:none;stroke:#e3a3ae;stroke-width:1.32292;stroke-dasharray:none;stroke-opacity:1"
         d="m 92.812498,34.179859 c 0.540393,-1.378003 2.026476,-1.67522 2.242633,-1.445554 0.216156,0.229669 -0.918668,3.472027 -0.74304,4.052948 0.175627,0.580922 3.107258,0.472845 3.107258,0.472845"
         id="path9" /><path
         style="fill:none;stroke:#e3a3ae;stroke-width:1.32292;stroke-dasharray:none;stroke-opacity:1"
         d="m 75.425355,84.625544 c 1.891374,-2.823551 3.67467,-6.038892 0.972706,-6.579285 -2.701965,-0.540393 1.337474,4.525793 1.823826,-0.864627 0.486354,-5.390422 -3.404476,-5.025657 -2.931631,-3.97189 0.472845,1.053766 3.296396,0.297217 2.121043,-1.59416 -1.175356,-1.891374 -4.377185,-0.972706 -3.566594,-0.04053 0.810588,0.932178 3.958378,-1.621178 2.121043,-2.107533 -1.837336,-0.486352 -5.714656,2.31018 -3.539575,1.972434 2.175081,-0.337743 0.797078,-2.620904 -0.526883,-2.391238 -1.323962,0.229667 -3.998908,2.674946 -2.32369,2.701965 1.675217,0.02702 0.513373,-3.228848 -0.661982,-2.148062 -1.175354,1.080786 -4.201555,3.553084 -2.404748,3.201829 1.796806,-0.351256 0.689001,-2.43177 -0.932177,-2.012963 -1.621182,0.418803 -3.836792,2.688455 -2.039986,2.877592 1.796807,0.189137 0.364766,-3.14779 -1.067276,-2.512827 -1.432041,0.63496 -4.215064,1.958924 -2.431767,2.32369 1.783297,0.364765 0.824098,-2.553357 -0.797081,-2.364219 -1.621178,0.189137 -3.499045,1.594159 -1.837335,2.391238 1.661708,0.797078 0.918668,-2.958653 -0.567412,-2.553356 -1.486083,0.405294 -3.026201,3.201828 -2.256142,3.336925 0.770059,0.135098 0.324236,-2.877593 -1.391513,-2.904612 -1.715746,-0.02702 -2.634416,0.72953 -2.094023,1.175356 0.540393,0.445823 3.350437,-3.120771 -0.999726,-1.999454 -4.350165,1.121315 -1.945415,3.458514 -1.094295,3.05322 0.851117,-0.405296 0.391784,-3.553084 -1.242904,-3.377456 -1.634689,0.175628 -2.823554,2.701965 -1.256414,2.121043 1.567138,-0.580925 -0.621453,-3.296399 -1.378003,-1.999456 -0.756549,1.296945 2.161572,4.039438 2.22912,2.634416 0.06755,-1.405022 -3.985397,-0.702511 -2.701964,0.229666 1.283432,0.93218 3.472026,2.553359 3.228847,1.188866 -0.243175,-1.364493 -3.580103,0.02702 -3.458514,1.094295 0.12159,1.067277 3.472024,2.877593 3.309909,1.742768 -0.162119,-1.134824 -3.566594,0.283708 -3.25587,0.999729 0.310726,0.71602 3.87732,3.309905 3.688183,1.702236 -0.189138,-1.607669 -3.90434,1.067276 -3.499046,2.41826 0.405297,1.350981 3.215338,1.823826 2.999182,0.607941 -0.216157,-1.215885 -3.039711,0.661982 -3.039711,1.378003 0,0.716021 3.06673,3.05322 3.309909,1.904886 0.243176,-1.148337 -4.701421,-0.459335 -4.539303,0.391785 0.162118,0.851116 2.972162,1.945415 3.363947,1.202372 0.391784,-0.74304 -2.985672,-0.553903 -2.445279,1.148337 0.540393,1.702236 4.039438,1.675217 3.161299,0.675491 -0.878138,-0.999728 -5.484989,2.35071 -4.363672,3.09375 1.121315,0.743039 0.135096,-3.877321 2.350709,-1.958925 2.21561,1.918396 4.390692,1.053766 3.147788,0.432313 -1.242904,-0.621451 -3.363944,2.458789 0.797081,2.350712 4.161025,-0.10808 6.038892,-1.418532 3.607123,-1.621179 -2.431767,-0.20265 -0.594432,2.850573 1.080786,2.3372 1.675219,-0.513374 3.377456,-2.769516 1.945415,-2.43177 -1.432042,0.337746 -3.134278,3.417985 -0.918668,3.215338 2.21561,-0.202647 7.524972,-2.377728 4.606851,-2.674945 -2.918124,-0.297217 0.02702,3.634142 2.21561,3.174809 2.188591,-0.459335 5.093205,-3.458516 3.350437,-3.390966 -1.742768,0.06755 -2.404747,3.390966 -0.864629,3.782751 1.540121,0.391784 6.984579,-1.607669 4.917577,-2.972163 -2.067004,-1.36449 -1.256413,4.687912 0.86463,2.891105 2.12104,-1.796806 4.336653,-4.471752 2.175081,-4.147518 -2.161572,0.324236 0.526883,4.795988 2.620904,2.431769 2.094024,-2.364218 0.459335,-5.187772 -0.486351,-3.863811 -0.94569,1.323965 2.067001,2.985672 2.364218,0.661983 0.297217,-2.32369 -1.823826,-5.809226 -2.283161,-3.931359 -0.459332,1.877864 3.323418,0.135098 2.634417,-0.905159 -0.689002,-1.040257 -1.999454,-3.377456 -2.161572,-2.012963 -0.162118,1.364491 0.351256,0.486352 0.351256,0.486353 z"
         id="path10" /><path
         style="opacity:1;fill:none;stroke:#e3a3ae;stroke-width:1.32292;stroke-dasharray:none;stroke-opacity:1"
         d="m 55.721591,95.008085 c 0.05773,1.304142 -0.08557,4.743183 -0.08557,4.743183"
         id="path11" /><path
         style="opacity:1;fill:none;stroke:#e3a3ae;stroke-width:1.32292;stroke-dasharray:none;stroke-opacity:1"
         d="m 59.64824,97.649632 c -2.493306,0.706914 -3.964458,1.824604 -4.012218,2.101636 -0.04776,0.277032 1.480701,4.012212 2.244934,4.852862"
         id="path12" /><path
         style="opacity:1;fill:none;stroke:#e3a3ae;stroke-width:1.32292;stroke-dasharray:none;stroke-opacity:1"
         d="m 55.636022,99.751268 c 0,0 0.558096,-0.805307 3.482972,1.302222"
         id="path13" /><path
         style="opacity:1;fill:none;stroke:#e3a3ae;stroke-width:1.32291665;stroke-dasharray:none;stroke-opacity:1"
         d="m 69.48752,96.241572 c -0.276839,1.809279 0.754872,4.245268 0.793083,6.681258"
         id="path14" /><path
         style="opacity:1;fill:none;stroke:#e3a3ae;stroke-width:1.32292;stroke-linejoin:round;stroke-dasharray:none;stroke-opacity:1"
         d="m 73.929808,99.722608 c -1.996554,1.623992 -3.649205,3.200222 -3.649205,3.200222 0,0 1.11769,2.70346 1.843709,3.30529 0.72602,0.60184 1.886604,0.97366 1.886604,0.97366"
         id="path15"
         sodipodi:nodetypes="ccsc" /><path
         style="opacity:1;fill:none;stroke:#e3a3ae;stroke-width:1.32292;stroke-dasharray:none;stroke-opacity:1"
         d="m 75.200342,103.13299 c -2.751232,-0.14329 -4.919739,-0.21016 -4.919739,-0.21016"
         id="path16" /><path
         style="fill:none;stroke:#e3a3ae;stroke-width:1.32292;stroke-dasharray:none;stroke-opacity:1"
         d="m 74.776882,59.254093 c 7.619542,-0.864629 9.37582,0.810591 9.254231,4.255595 -0.12159,3.445005 -6.849481,3.445005 -9.456878,1.378003"
         id="path2" /></g></g></svg>
