<?xml version="1.0" encoding="UTF-8" standalone="no"?>
<!-- Created with Inkscape (http://www.inkscape.org/) -->

<svg
   width="512"
   height="512"
   viewBox="0 0 135.46666 135.46667"
   version="1.1"
   id="svg1"
   xml:space="preserve"
   inkscape:version="1.4.3 (0d15f75, 2025-12-25)"
   sodipodi:docname="pigeyptien.svg"
   inkscape:export-filename="pigeyptien.png"
   inkscape:export-xdpi="96"
   inkscape:export-ydpi="96"
   xmlns:inkscape="http://www.inkscape.org/namespaces/inkscape"
   xmlns:sodipodi="http://sodipodi.sourceforge.net/DTD/sodipodi-0.dtd"
   xmlns:xlink="http://www.w3.org/1999/xlink"
   xmlns="http://www.w3.org/2000/svg"
   xmlns:svg="http://www.w3.org/2000/svg"><sodipodi:namedview
     id="namedview1"
     pagecolor="#505050"
     bordercolor="#eeeeee"
     borderopacity="1"
     inkscape:showpageshadow="0"
     inkscape:pageopacity="0"
     inkscape:pagecheckerboard="0"
     inkscape:deskcolor="#505050"
     inkscape:document-units="px"
     inkscape:zoom="1.2436308"
     inkscape:cx="184.94235"
     inkscape:cy="102.12034"
     inkscape:window-width="3360"
     inkscape:window-height="1766"
     inkscape:window-x="5028"
     inkscape:window-y="-12"
     inkscape:window-maximized="1"
     inkscape:current-layer="layer1" /><defs
     id="defs1"><linearGradient
       id="linearGradient52"
       inkscape:collect="always"><stop
         style="stop-color:#a49374;stop-opacity:1;"
         offset="0"
         id="stop52" /><stop
         style="stop-color:#c4b8a4;stop-opacity:1;"
         offset="1"
         id="stop53" /></linearGradient><linearGradient
       id="linearGradient50"
       inkscape:collect="always"><stop
         style="stop-color:#8f7946;stop-opacity:1;"
         offset="0"
         id="stop50" /><stop
         style="stop-color:#b8a06c;stop-opacity:1;"
         offset="1"
         id="stop51" /></linearGradient><linearGradient
       id="linearGradient35"
       inkscape:collect="always"><stop
         style="stop-color:#bf502e;stop-opacity:1;"
         offset="0"
         id="stop35" /><stop
         style="stop-color:#d36a4a;stop-opacity:1;"
         offset="1"
         id="stop36" /></linearGradient><linearGradient
       inkscape:collect="always"
       xlink:href="#linearGradient35"
       id="linearGradient36"
       x1="45.076483"
       y1="68.664693"
       x2="82.719195"
       y2="68.664693"
       gradientUnits="userSpaceOnUse" /><linearGradient
       inkscape:collect="always"
       xlink:href="#linearGradient50"
       id="linearGradient51"
       x1="44.588917"
       y1="37.037926"
       x2="68.749924"
       y2="27.906151"
       gradientUnits="userSpaceOnUse" /><linearGradient
       inkscape:collect="always"
       xlink:href="#linearGradient52"
       id="linearGradient53"
       x1="45.834679"
       y1="25.721931"
       x2="57.512825"
       y2="20.309393"
       gradientUnits="userSpaceOnUse" /></defs><g
     inkscape:label="Calque 1"
     inkscape:groupmode="layer"
     id="layer1"><rect
       style="fill:#8ce1eb;fill-opacity:1;stroke:none;stroke-width:1.32292;stroke-linecap:square;stroke-linejoin:round;stroke-dasharray:none;stroke-opacity:1;paint-order:normal"
       id="rect53"
       width="135.46666"
       height="135.46666"
       x="0"
       y="0" /><path
       style="fill:#f4ba46;fill-opacity:1;stroke:none;stroke-width:1.32292;stroke-linecap:square;stroke-linejoin:round;stroke-dasharray:none;stroke-opacity:1;paint-order:normal"
       d="m 0,75.519612 c 36.104994,-6.61925 98.381549,13.238496 135.46666,1.955687 l 0,57.991361 H 0 Z"
       id="path108" /><g
       id="g108"
       inkscape:label="pyramid2"
       transform="matrix(0.70788816,0,0,0.70431065,28.028915,23.60962)"
       style="stroke-width:1.41624"><g
         id="g94"
         inkscape:label="pyramid-left"
         transform="matrix(0.65758617,0,0,0.77807751,71.113068,18.210218)"
         style="stroke-width:1.97992"><path
           style="fill:#ebb059;fill-opacity:1;stroke:none;stroke-width:2.61927;stroke-linecap:square;stroke-linejoin:round;stroke-dasharray:none;stroke-opacity:1;paint-order:normal"
           d="M 44.053124,38.211103 50.998437,96.079407 0,88.106249 Z"
           id="path83" /><path
           id="path84"
           style="fill:#ebb059;fill-opacity:1;stroke:none;stroke-width:2.61927;stroke-linecap:square;stroke-linejoin:round;stroke-dasharray:none;stroke-opacity:1;paint-order:normal"
           d="M 8.22017,78.796223 0,88.106249 50.998437,96.079406 49.702392,85.281615 Z" /><path
           id="path85"
           style="fill:#e2a54b;fill-opacity:1;stroke:none;stroke-width:2.61927;stroke-linecap:square;stroke-linejoin:round;stroke-dasharray:none;stroke-opacity:1;paint-order:normal"
           d="M 16.431038,69.496532 8.22017,78.796223 49.702392,85.281615 48.407897,74.49571 Z" /><path
           id="path86"
           style="fill:#ebb059;fill-opacity:1;stroke:none;stroke-width:2.61927;stroke-linecap:square;stroke-linejoin:round;stroke-dasharray:none;stroke-opacity:1;paint-order:normal"
           d="M 24.632605,60.207177 16.431038,69.496532 48.407897,74.49571 47.114953,63.722208 Z" /><path
           id="path87"
           style="fill:#e2a54b;fill-opacity:1;stroke:none;stroke-width:2.61927;stroke-linecap:square;stroke-linejoin:round;stroke-dasharray:none;stroke-opacity:1;paint-order:normal"
           d="m 32.852258,50.897151 -8.219653,9.310026 22.482348,3.515031 -1.296045,-10.797791 z" /><path
           id="path88"
           style="fill:#ebb059;fill-opacity:1;stroke:none;stroke-width:2.61927;stroke-linecap:square;stroke-linejoin:round;stroke-dasharray:none;stroke-opacity:1;paint-order:normal"
           d="m 44.053124,38.211104 -11.200866,12.686047 12.96665,2.027266 z" /><path
           style="fill:#ebb059;fill-opacity:1;stroke:none;stroke-width:2.61927;stroke-linecap:square;stroke-linejoin:round;stroke-dasharray:none;stroke-opacity:1;paint-order:normal"
           d="M 44.053124,38.211103 50.998437,96.079407 0,88.106249 Z"
           id="path89" /><path
           id="path90"
           style="fill:#ebb059;fill-opacity:1;stroke:none;stroke-width:2.61927;stroke-linecap:square;stroke-linejoin:round;stroke-dasharray:none;stroke-opacity:1;paint-order:normal"
           d="M 8.22017,78.796223 0,88.106249 50.998437,96.079406 49.702392,85.281615 Z" /><path
           id="path91"
           style="fill:#e2a54b;fill-opacity:1;stroke:none;stroke-width:2.61927;stroke-linecap:square;stroke-linejoin:round;stroke-dasharray:none;stroke-opacity:1;paint-order:normal"
           d="M 16.431038,69.496532 8.22017,78.796223 49.702392,85.281615 48.407897,74.49571 Z" /><path
           id="path92"
           style="fill:#ebb059;fill-opacity:1;stroke:none;stroke-width:2.61927;stroke-linecap:square;stroke-linejoin:round;stroke-dasharray:none;stroke-opacity:1;paint-order:normal"
           d="M 24.632605,60.207177 16.431038,69.496532 48.407897,74.49571 47.114953,63.722208 Z" /><path
           id="path93"
           style="fill:#e2a54b;fill-opacity:1;stroke:none;stroke-width:2.61927;stroke-linecap:square;stroke-linejoin:round;stroke-dasharray:none;stroke-opacity:1;paint-order:normal"
           d="m 32.852258,50.897151 -8.219653,9.310026 22.482348,3.515031 -1.296045,-10.797791 z" /><path
           id="path94"
           style="fill:#ebb059;fill-opacity:1;stroke:none;stroke-width:2.61927;stroke-linecap:square;stroke-linejoin:round;stroke-dasharray:none;stroke-opacity:1;paint-order:normal"
           d="m 44.053124,38.211104 -11.200866,12.686047 12.96665,2.027266 z" /></g><g
         id="g100"
         inkscape:label="pyramid-right"
         transform="matrix(0.65758617,0,0,0.77807751,71.113068,18.210218)"
         style="stroke-width:1.97992"><path
           style="fill:#c0804a;fill-opacity:1;stroke:none;stroke-width:2.61927;stroke-linecap:square;stroke-linejoin:round;stroke-dasharray:none;stroke-opacity:1;paint-order:normal"
           d="m 44.053124,38.211103 6.945313,57.868304 37.107812,-7.973158 z"
           id="path95" /><path
           id="path96"
           style="fill:#c0804a;fill-opacity:1;stroke:none;stroke-width:2.61927;stroke-linecap:square;stroke-linejoin:round;stroke-dasharray:none;stroke-opacity:1;paint-order:normal"
           d="m 79.886079,78.796223 -30.183687,6.485392 1.296045,10.797791 37.107812,-7.973157 z" /><path
           id="path97"
           style="fill:#b97a46;fill-opacity:1;stroke:none;stroke-width:2.61927;stroke-linecap:square;stroke-linejoin:round;stroke-dasharray:none;stroke-opacity:1;paint-order:normal"
           d="M 71.675211,69.496532 48.407897,74.49571 49.702392,85.281615 79.886079,78.796223 Z" /><path
           id="path98"
           style="fill:#c0804a;fill-opacity:1;stroke:none;stroke-width:2.61927;stroke-linecap:square;stroke-linejoin:round;stroke-dasharray:none;stroke-opacity:1;paint-order:normal"
           d="M 63.473644,60.207177 47.114953,63.722208 48.407897,74.49571 71.675211,69.496532 Z" /><path
           id="path99"
           style="fill:#b97a46;fill-opacity:1;stroke:none;stroke-width:2.61927;stroke-linecap:square;stroke-linejoin:round;stroke-dasharray:none;stroke-opacity:1;paint-order:normal"
           d="m 55.253991,50.897151 -9.435083,2.027266 1.296045,10.797791 16.358691,-3.515031 z" /><path
           id="path100"
           style="fill:#c0804a;fill-opacity:1;stroke:none;stroke-width:2.61927;stroke-linecap:square;stroke-linejoin:round;stroke-dasharray:none;stroke-opacity:1;paint-order:normal"
           d="m 44.053124,38.211104 1.765784,14.713313 9.435083,-2.027266 z" /></g></g><g
       id="g107"
       inkscape:label="pyramid1"><g
         id="g62"
         inkscape:label="pyramid-left"><path
           style="fill:#ebb059;fill-opacity:1;stroke:none;stroke-width:1.32292;stroke-linecap:square;stroke-linejoin:round;stroke-dasharray:none;stroke-opacity:1;paint-order:normal"
           d="M 44.053124,38.211103 50.998437,96.079407 0,88.106249 Z"
           id="path70" /><path
           id="path55"
           style="fill:#ebb059;fill-opacity:1;stroke:none;stroke-width:1.32292;stroke-linecap:square;stroke-linejoin:round;stroke-dasharray:none;stroke-opacity:1;paint-order:normal"
           d="M 8.22017 78.796223 L 0 88.106249 L 50.998437 96.079406 L 49.702392 85.281615 L 8.22017 78.796223 z " /><path
           id="path56"
           style="fill:#e2a54b;fill-opacity:1;stroke:none;stroke-width:1.32292;stroke-linecap:square;stroke-linejoin:round;stroke-dasharray:none;stroke-opacity:1;paint-order:normal"
           d="M 16.431038 69.496532 L 8.22017 78.796223 L 49.702392 85.281615 L 48.407897 74.49571 L 16.431038 69.496532 z " /><path
           id="path57"
           style="fill:#ebb059;fill-opacity:1;stroke:none;stroke-width:1.32292;stroke-linecap:square;stroke-linejoin:round;stroke-dasharray:none;stroke-opacity:1;paint-order:normal"
           d="M 24.632605 60.207177 L 16.431038 69.496532 L 48.407897 74.49571 L 47.114953 63.722208 L 24.632605 60.207177 z " /><path
           id="path58"
           style="fill:#e2a54b;fill-opacity:1;stroke:none;stroke-width:1.32292;stroke-linecap:square;stroke-linejoin:round;stroke-dasharray:none;stroke-opacity:1;paint-order:normal"
           d="M 32.852258 50.897151 L 24.632605 60.207177 L 47.114953 63.722208 L 45.818908 52.924417 L 32.852258 50.897151 z " /><path
           id="path59"
           style="fill:#ebb059;fill-opacity:1;stroke:none;stroke-width:1.32292;stroke-linecap:square;stroke-linejoin:round;stroke-dasharray:none;stroke-opacity:1;paint-order:normal"
           d="M 44.053124 38.211104 L 32.852258 50.897151 L 45.818908 52.924417 L 44.053124 38.211104 z " /><path
           style="fill:#ebb059;fill-opacity:1;stroke:none;stroke-width:1.32292;stroke-linecap:square;stroke-linejoin:round;stroke-dasharray:none;stroke-opacity:1;paint-order:normal"
           d="M 44.053124,38.211103 50.998437,96.079407 0,88.106249 Z"
           id="path71" /><path
           id="path72"
           style="fill:#ebb059;fill-opacity:1;stroke:none;stroke-width:1.32292;stroke-linecap:square;stroke-linejoin:round;stroke-dasharray:none;stroke-opacity:1;paint-order:normal"
           d="M 8.22017 78.796223 L 0 88.106249 L 50.998437 96.079406 L 49.702392 85.281615 L 8.22017 78.796223 z " /><path
           id="path73"
           style="fill:#e2a54b;fill-opacity:1;stroke:none;stroke-width:1.32292;stroke-linecap:square;stroke-linejoin:round;stroke-dasharray:none;stroke-opacity:1;paint-order:normal"
           d="M 16.431038 69.496532 L 8.22017 78.796223 L 49.702392 85.281615 L 48.407897 74.49571 L 16.431038 69.496532 z " /><path
           id="path74"
           style="fill:#ebb059;fill-opacity:1;stroke:none;stroke-width:1.32292;stroke-linecap:square;stroke-linejoin:round;stroke-dasharray:none;stroke-opacity:1;paint-order:normal"
           d="M 24.632605 60.207177 L 16.431038 69.496532 L 48.407897 74.49571 L 47.114953 63.722208 L 24.632605 60.207177 z " /><path
           id="path75"
           style="fill:#e2a54b;fill-opacity:1;stroke:none;stroke-width:1.32292;stroke-linecap:square;stroke-linejoin:round;stroke-dasharray:none;stroke-opacity:1;paint-order:normal"
           d="M 32.852258 50.897151 L 24.632605 60.207177 L 47.114953 63.722208 L 45.818908 52.924417 L 32.852258 50.897151 z " /><path
           id="path76"
           style="fill:#ebb059;fill-opacity:1;stroke:none;stroke-width:1.32292;stroke-linecap:square;stroke-linejoin:round;stroke-dasharray:none;stroke-opacity:1;paint-order:normal"
           d="M 44.053124 38.211104 L 32.852258 50.897151 L 45.818908 52.924417 L 44.053124 38.211104 z " /></g><g
         id="g69"
         inkscape:label="pyramid-right"><path
           style="fill:#c0804a;fill-opacity:1;stroke:none;stroke-width:1.32292;stroke-linecap:square;stroke-linejoin:round;stroke-dasharray:none;stroke-opacity:1;paint-order:normal"
           d="m 44.053124,38.211103 6.945313,57.868304 37.107812,-7.973158 z"
           id="path69" /><path
           id="path53"
           style="fill:#c0804a;fill-opacity:1;stroke:none;stroke-width:1.32292;stroke-linecap:square;stroke-linejoin:round;stroke-dasharray:none;stroke-opacity:1;paint-order:normal"
           d="M 79.886079 78.796223 L 49.702392 85.281615 L 50.998437 96.079406 L 88.106249 88.106249 L 79.886079 78.796223 z " /><path
           id="path62"
           style="fill:#b97a46;fill-opacity:1;stroke:none;stroke-width:1.32292;stroke-linecap:square;stroke-linejoin:round;stroke-dasharray:none;stroke-opacity:1;paint-order:normal"
           d="M 71.675211 69.496532 L 48.407897 74.49571 L 49.702392 85.281615 L 79.886079 78.796223 L 71.675211 69.496532 z " /><path
           id="path63"
           style="fill:#c0804a;fill-opacity:1;stroke:none;stroke-width:1.32292;stroke-linecap:square;stroke-linejoin:round;stroke-dasharray:none;stroke-opacity:1;paint-order:normal"
           d="M 63.473644 60.207177 L 47.114953 63.722208 L 48.407897 74.49571 L 71.675211 69.496532 L 63.473644 60.207177 z " /><path
           id="path64"
           style="fill:#b97a46;fill-opacity:1;stroke:none;stroke-width:1.32292;stroke-linecap:square;stroke-linejoin:round;stroke-dasharray:none;stroke-opacity:1;paint-order:normal"
           d="M 55.253991 50.897151 L 45.818908 52.924417 L 47.114953 63.722208 L 63.473644 60.207177 L 55.253991 50.897151 z " /><path
           id="path65"
           style="fill:#c0804a;fill-opacity:1;stroke:none;stroke-width:1.32292;stroke-linecap:square;stroke-linejoin:round;stroke-dasharray:none;stroke-opacity:1;paint-order:normal"
           d="M 44.053124 38.211104 L 45.818908 52.924417 L 55.253991 50.897151 L 44.053124 38.211104 z " /></g></g><g
       id="g53"
       transform="translate(2.2623221,11.31524)"
       style="display:inline"
       inkscape:label="pigeon"><path
         id="path49"
         style="fill:#b8a06c;fill-opacity:1;stroke:none;stroke-width:1.32292;stroke-dasharray:none;stroke-opacity:1;paint-order:markers stroke fill"
         d="m 66.43057,6.8652139 c -2.807083,-0.044763 -5.133521,2.4812492 -1.441773,5.2823651 -0.698565,-4.8618343 3.886929,-3.703851 3.600297,1.717724 -0.19922,3.768199 -4.126655,7.626168 -6.671427,10.381795 l 0.211356,0.275953 c 0.303715,0.360223 0.58512,0.725487 0.841293,1.097607 l 0.201538,0.26355 C 71.16474,20.000334 72.861509,11.584322 69.614871,8.2367064 68.700953,7.2943628 67.528993,6.88273 66.43057,6.8652139 Z" /><path
         style="fill:url(#linearGradient51);fill-opacity:1;stroke:none;stroke-width:1.32292;stroke-dasharray:none;stroke-opacity:1;paint-order:markers stroke fill"
         d="M 48.765798,54.045973 C 45.200792,32.991695 33.397118,7.7475299 33.397118,7.7475299 c 3.572039,0.2918228 5.245161,3.2412301 7.597093,10.3425761 1.593246,4.810595 7.434302,12.423513 14.441998,12.147826 7.110724,-0.27974 11.094763,-1.241109 13.313716,-2.331781 0.789797,4.137031 -2.303268,14.936348 -2.303268,14.936348"
         id="path47"
         sodipodi:nodetypes="ccsscc" /><path
         style="fill:url(#linearGradient36);fill-opacity:1;stroke:#000000;stroke-width:1.32292;stroke-dasharray:none;stroke-opacity:1;paint-order:normal"
         d="M 79.628283,89.402978 C 79.292661,84.873232 82.635732,64.173503 81.962211,59.942515 81.28869,55.711527 79.839413,41.878026 65.891613,42.874681 c -13.318118,0.951661 -22.64084,5.716622 -19.556872,48.346841 13.464155,5.171289 25.950465,3.967789 33.293542,-1.818544 z"
         id="path15"
         sodipodi:nodetypes="czscc" /><g
         id="g46"
         transform="rotate(-19.378181,74.751407,81.448997)"
         style="fill:#47a6b6;fill-opacity:1;stroke:none"><path
           style="fill:#47a6b6;fill-opacity:1;stroke:none;stroke-width:1.32292;stroke-linejoin:round;stroke-dasharray:none;stroke-opacity:1;paint-order:markers stroke fill"
           d="m 83.7096,80.532282 c 0.02721,1.143981 0.02009,2.19083 -0.04248,3.0407 -0.125136,1.699741 -0.912247,2.511083 -2.865407,3.045194 -5.998302,1.640295 -14.520503,-5.087575 -14.520503,-5.087575 0.783935,-1.122335 1.634254,-2.078763 2.518843,-2.949544 0.88459,-0.87078 1.803449,-1.655913 2.724464,-2.435658 4.578253,2.035197 12.021545,2.826728 12.021544,0.763387 0.07478,1.238402 0.136327,2.479515 0.163539,3.623496 z"
           id="path36"
           sodipodi:nodetypes="scscsccs" /><path
           style="fill:#47a6b6;fill-opacity:1;stroke:none;stroke-width:1.32292;stroke-linejoin:round;stroke-dasharray:none;stroke-opacity:1;paint-order:markers stroke fill"
           d="m 67.931901,82.707723 2.45001,-2.955201"
           id="path38" /><path
           style="fill:#47a6b6;fill-opacity:1;stroke:none;stroke-width:1.32292;stroke-linejoin:round;stroke-dasharray:none;stroke-opacity:1;paint-order:markers stroke fill"
           d="m 69.733892,83.834247 2.17893,-3.147882"
           id="path39" /><path
           style="fill:#47a6b6;fill-opacity:1;stroke:none;stroke-width:1.32292;stroke-linejoin:round;stroke-dasharray:none;stroke-opacity:1;paint-order:markers stroke fill"
           d="m 71.582284,84.836292 2.010833,-3.341283"
           id="path40" /><path
           style="fill:#47a6b6;fill-opacity:1;stroke:none;stroke-width:1.32292;stroke-linejoin:round;stroke-dasharray:none;stroke-opacity:1;paint-order:markers stroke fill"
           d="m 73.708931,85.783287 1.59845,-3.695345"
           id="path41" /><path
           style="fill:#47a6b6;fill-opacity:1;stroke:none;stroke-width:1.32292;stroke-linejoin:round;stroke-dasharray:none;stroke-opacity:1;paint-order:markers stroke fill"
           d="m 75.658706,86.427354 1.288985,-4.000403"
           id="path42" /><path
           style="fill:#47a6b6;fill-opacity:1;stroke:none;stroke-width:1.32292;stroke-linejoin:round;stroke-dasharray:none;stroke-opacity:1;paint-order:markers stroke fill"
           d="m 77.639537,86.810437 0.593218,-4.28718"
           id="path43" /><path
           style="fill:#47a6b6;fill-opacity:1;stroke:none;stroke-width:1.32292;stroke-linejoin:round;stroke-dasharray:none;stroke-opacity:1;paint-order:markers stroke fill"
           d="m 80.210696,86.751847 -0.01198,-4.216285"
           id="path44" /><path
           style="fill:#47a6b6;fill-opacity:1;stroke:none;stroke-width:1.32292;stroke-linejoin:round;stroke-dasharray:none;stroke-opacity:1;paint-order:markers stroke fill"
           d="M 82.581131,85.833226 81.76039,81.829597"
           id="path45" /></g><path
         style="fill:none;stroke:#000000;stroke-width:1.32292;stroke-dasharray:none;stroke-opacity:1;paint-order:markers stroke fill"
         d="m 61.325394,74.569126 c 0,0 -3.563575,9.36103 -5.05283,9.839719 -1.489255,0.478689 -10.052473,-2.127506 -11.648101,-1.382879"
         id="path2"
         sodipodi:nodetypes="csc" /><path
         style="fill:none;stroke:#000000;stroke-width:1.32292;stroke-dasharray:none;stroke-opacity:1;paint-order:markers stroke fill"
         d="m 41.592764,79.036891 c 0,0 3.231153,3.284339 3.031699,3.989075 -0.199453,0.704736 -1.409475,2.180696 -1.409475,2.180696"
         id="path3" /><path
         style="fill:none;stroke:#000000;stroke-width:1.32292;stroke-dasharray:none;stroke-opacity:1;paint-order:markers stroke fill"
         d="m 41.805516,83.438171 c 1.316394,-0.239345 2.818947,-0.412205 2.818947,-0.412205"
         id="path4"
         sodipodi:nodetypes="cc" /><path
         style="fill:none;stroke:#000000;stroke-width:1.32292;stroke-dasharray:none;stroke-opacity:1;paint-order:markers stroke fill"
         d="m 81.97783,60.36321 c 2.444607,-3.121578 2.417593,-3.385018 4.034795,-3.008923 1.617202,0.376094 5.346784,0.697325 7.603346,-0.299321"
         id="path5"
         sodipodi:nodetypes="csc" /><path
         style="fill:none;stroke:#000000;stroke-width:1.32292;stroke-dasharray:none;stroke-opacity:1;paint-order:markers stroke fill"
         d="m 97.032169,50.30253 c 2.633365,-3.864716 -0.681532,-8.655512 -4.978287,-6.766461 -4.296755,1.889051 -1.451594,7.540206 0.12668,9.925647 1.578274,2.385441 1.606764,4.296172 1.636006,7.032953 0.02924,2.736781 -1.127672,13.685091 -1.147085,17.243895"
         id="path6"
         sodipodi:nodetypes="czzzc" /><path
         style="fill:#e7c647;fill-opacity:1;stroke:none;stroke-width:1.32292;stroke-dasharray:none;stroke-opacity:1;paint-order:markers stroke fill"
         d="m 76.967571,64.029949 c 7.691117,-2.12493 13.294913,-2.275366 12.918818,1.748835 -0.376092,4.024204 -7.258608,5.66021 -12.335872,6.036305 0.08935,-2.843256 -0.104963,-5.438302 -0.582946,-7.78514 z"
         id="path46"
         sodipodi:nodetypes="cscc" /><path
         style="fill:none;stroke:#000000;stroke-width:1.32292;stroke-linecap:square;stroke-dasharray:none;stroke-opacity:1;paint-order:markers stroke fill"
         d="m 76.967571,64.029949 c 7.691117,-2.12493 13.294913,-2.275366 12.918818,1.748835 -0.376092,4.024204 -7.258608,5.66021 -12.335872,6.036305"
         id="path7" /><path
         style="fill:none;stroke:#000000;stroke-width:1.32292;stroke-dasharray:none;stroke-opacity:1;paint-order:markers stroke fill"
         d="m 79.52501,68.261004 c 5.302919,-0.808603 10.378646,-2.787168 10.378646,-2.787168"
         id="path8"
         sodipodi:nodetypes="cc" /><path
         style="fill:none;stroke:#000000;stroke-width:1.32292;stroke-dasharray:none;stroke-opacity:1;paint-order:markers stroke fill"
         d="m 71.025291,54.608804 c 1.033633,-0.50042 1.444951,0.641683 0.470117,1.429154 -0.632291,0.510765 -1.50375,-0.928733 -0.470117,-1.429154 z"
         id="path9"
         sodipodi:nodetypes="zsz" /><path
         id="path48"
         style="fill:url(#linearGradient53);fill-opacity:1;stroke:none;stroke-width:1.32292;stroke-dasharray:none;stroke-opacity:1;paint-order:markers stroke fill"
         d="m 43.323453,5.4337768 c -0.587752,-0.036725 -1.254957,0.2134939 -2.0283,0.8469767 -3.535281,2.8959212 2.67018,8.0484445 2.519743,12.0726475 -0.124036,3.317916 -0.254582,4.321671 -0.296623,4.571814 2.706981,3.857008 7.028635,7.505088 11.918136,7.312732 3.768207,-0.148243 6.658129,-0.488005 8.872843,-0.936893 0.06571,-0.02075 0.131247,-0.04081 0.196887,-0.06046 C 63.453076,21.718718 49.456545,16.322503 47.801733,12.411129 46.508912,9.3553671 45.422567,5.5649356 43.323453,5.4337768 Z" /><path
         style="fill:none;fill-opacity:1;stroke:#000000;stroke-width:1.32292;stroke-dasharray:none;stroke-opacity:1;paint-order:markers stroke fill"
         d="M 48.765798,54.045973 C 45.200792,32.991695 33.397118,7.7475299 33.397118,7.7475299 c 3.572039,0.2918228 5.245161,3.2412301 7.597093,10.3425761 1.593246,4.810595 7.434302,12.423513 14.441998,12.147826 7.110724,-0.27974 11.094763,-1.241109 13.313716,-2.331781 0.789797,4.137031 -2.303268,14.936348 -2.303268,14.936348"
         id="path11"
         sodipodi:nodetypes="ccsscc" /><path
         style="fill:none;stroke:#000000;stroke-width:1.32292;stroke-dasharray:none;stroke-opacity:1;paint-order:markers stroke fill"
         d="M 64.506296,29.240523 C 63.453233,21.718649 49.456318,16.322466 47.801506,12.411092 46.146696,8.4997173 44.830367,3.3848431 41.295087,6.2807645 c -3.535281,2.8959212 2.670265,8.0484045 2.519828,12.0726075 -0.15044,4.024202 -0.310614,4.64419 -0.310614,4.64419"
         id="path12"
         sodipodi:nodetypes="csssc" /><path
         style="fill:none;stroke:#000000;stroke-width:1.32292;stroke-dasharray:none;stroke-opacity:1;paint-order:markers stroke fill"
         d="m 63.171761,25.884281 c 7.992886,-5.883874 9.689818,-14.300214 6.44318,-17.6478295 -3.249488,-3.350555 -9.762299,0.01417 -4.625954,3.9113745 v 0 c -0.698565,-4.8618341 3.886899,-3.7043154 3.600267,1.71726 -0.19922,3.768199 -4.126993,7.626466 -6.671765,10.382093"
         id="path14"
         sodipodi:nodetypes="csccsc" /><path
         style="fill:none;stroke:#000000;stroke-width:1.32292;stroke-dasharray:none;stroke-opacity:1;paint-order:markers stroke fill"
         d="m 69.757529,93.809802 c 0.526531,4.88922 0.53438,7.660278 0.53438,7.660278"
         id="path16"
         sodipodi:nodetypes="cc" /><path
         style="fill:none;stroke:#000000;stroke-width:1.32292;stroke-dasharray:none;stroke-opacity:1;paint-order:markers stroke fill"
         d="m 68.712315,105.79515 1.579594,-4.32507"
         id="path17"
         sodipodi:nodetypes="cc" /><path
         style="fill:none;stroke:#000000;stroke-width:1.32292;stroke-dasharray:none;stroke-opacity:1;paint-order:markers stroke fill"
         d="m 72.02194,104.96775 -1.730031,-3.49767"
         id="path18"
         sodipodi:nodetypes="cc" /><path
         style="fill:none;stroke:#000000;stroke-width:1.32292;stroke-dasharray:none;stroke-opacity:1;paint-order:markers stroke fill"
         d="m 73.977626,102.18465 -3.685717,-0.71457"
         id="path19"
         sodipodi:nodetypes="cc" /><path
         style="fill:none;stroke:#000000;stroke-width:1.32292;stroke-dasharray:none;stroke-opacity:1;paint-order:markers stroke fill"
         d="m 57.218438,94.08769 c -0.488921,5.566185 -2.233543,10.61679 -2.233543,10.61679"
         id="path20"
         sodipodi:nodetypes="cc" /><path
         style="fill:none;stroke:#000000;stroke-width:1.32292;stroke-dasharray:none;stroke-opacity:1;paint-order:markers stroke fill"
         d="m 51.167546,107.53459 3.817349,-2.83011"
         id="path21"
         sodipodi:nodetypes="cc" /><path
         style="fill:none;stroke:#000000;stroke-width:1.32292;stroke-dasharray:none;stroke-opacity:1;paint-order:markers stroke fill"
         d="m 54.307927,107.6004 0.676968,-2.89592"
         id="path22"
         sodipodi:nodetypes="cc" /><path
         style="fill:none;stroke:#000000;stroke-width:1.32292;stroke-dasharray:none;stroke-opacity:1;paint-order:markers stroke fill"
         d="m 57.279068,107.07387 -2.294173,-2.36939"
         id="path23"
         sodipodi:nodetypes="cc" /><ellipse
         style="fill:#ffffff;fill-opacity:1;stroke:none;stroke-width:1.32292;stroke-dasharray:none;stroke-opacity:1;paint-order:markers stroke fill"
         id="path24"
         cx="71.880905"
         cy="54.853264"
         rx="0.36669135"
         ry="0.37609369" /><g
         id="g25"
         transform="rotate(-19.378181,74.751407,81.448997)"
         style="fill:none;fill-opacity:1"><path
           style="fill:none;fill-opacity:1;stroke:#000000;stroke-width:1.32292;stroke-linejoin:round;stroke-dasharray:none;stroke-opacity:1;paint-order:markers stroke fill"
           d="m 83.54606,76.908786 c 0.07478,1.238402 0.136328,2.479515 0.16354,3.623496 0.02721,1.143981 0.02009,2.19083 -0.04248,3.0407 -0.125136,1.699741 -0.912247,2.511083 -2.865407,3.045194 -5.998302,1.640295 -14.520503,-5.087575 -14.520503,-5.087575 0.783935,-1.122335 1.634254,-2.078763 2.518843,-2.949544 0.88459,-0.87078 1.803449,-1.655913 2.724464,-2.435658 4.578253,2.035197 12.021545,2.826728 12.021545,0.763386 0,-0.221264 -0.08559,-0.475358 -0.269495,-0.764268"
           id="path25"
           sodipodi:nodetypes="cscscscsc" /><path
           style="fill:none;fill-opacity:1;stroke:#000000;stroke-width:1.32292;stroke-linejoin:round;stroke-dasharray:none;stroke-opacity:1;paint-order:markers stroke fill"
           d="m 68.800051,78.581057 c 5.467708,4.429746 11.434012,5.194724 14.909547,1.951225"
           id="path26"
           sodipodi:nodetypes="cc" /><path
           style="fill:none;fill-opacity:1;stroke:#000000;stroke-width:1.32292;stroke-linejoin:round;stroke-dasharray:none;stroke-opacity:1;paint-order:markers stroke fill"
           d="m 67.931901,82.707723 2.45001,-2.955201"
           id="path27" /><path
           style="fill:none;fill-opacity:1;stroke:#000000;stroke-width:1.32292;stroke-linejoin:round;stroke-dasharray:none;stroke-opacity:1;paint-order:markers stroke fill"
           d="m 69.733892,83.834247 2.17893,-3.147882"
           id="path28" /><path
           style="fill:none;fill-opacity:1;stroke:#000000;stroke-width:1.32292;stroke-linejoin:round;stroke-dasharray:none;stroke-opacity:1;paint-order:markers stroke fill"
           d="m 71.582284,84.836292 2.010833,-3.341283"
           id="path29" /><path
           style="fill:none;fill-opacity:1;stroke:#000000;stroke-width:1.32292;stroke-linejoin:round;stroke-dasharray:none;stroke-opacity:1;paint-order:markers stroke fill"
           d="m 73.708931,85.783287 1.59845,-3.695345"
           id="path30" /><path
           style="fill:none;fill-opacity:1;stroke:#000000;stroke-width:1.32292;stroke-linejoin:round;stroke-dasharray:none;stroke-opacity:1;paint-order:markers stroke fill"
           d="m 75.658706,86.427354 1.288985,-4.000403"
           id="path31" /><path
           style="fill:none;fill-opacity:1;stroke:#000000;stroke-width:1.32292;stroke-linejoin:round;stroke-dasharray:none;stroke-opacity:1;paint-order:markers stroke fill"
           d="m 77.639537,86.810437 0.593218,-4.28718"
           id="path32" /><path
           style="fill:none;fill-opacity:1;stroke:#000000;stroke-width:1.32292;stroke-linejoin:round;stroke-dasharray:none;stroke-opacity:1;paint-order:markers stroke fill"
           d="m 80.210696,86.751847 -0.01198,-4.216285"
           id="path33" /><path
           style="fill:none;fill-opacity:1;stroke:#000000;stroke-width:1.32292;stroke-linejoin:round;stroke-dasharray:none;stroke-opacity:1;paint-order:markers stroke fill"
           d="M 82.581131,85.833226 81.76039,81.829597"
           id="path34" /><path
           style="fill:none;fill-opacity:1;stroke:#000000;stroke-width:1.32292;stroke-linejoin:round;stroke-dasharray:none;stroke-opacity:1;paint-order:markers stroke fill"
           d="m 68.800051,78.581057 c 3.435008,-0.545898 3.664194,-1.978828 4.885294,-1.627392 1.221101,0.351437 -0.780075,4.465965 0.89826,4.912868 1.678332,0.446902 2.695679,-3.978554 3.946196,-3.873246 1.250516,0.105307 0.107238,5.248241 1.668914,4.542274 1.561672,-0.705965 1.24261,-4.306902 2.313875,-4.643103 1.071263,-0.336201 1.197006,2.639823 1.197006,2.639823"
           id="path35" /></g></g></g></svg>
