<?xml version="1.0" encoding="UTF-8" standalone="no"?>
<!-- Created with Inkscape (http://www.inkscape.org/) -->

<svg
   width="512"
   height="512"
   viewBox="0 0 135.46666 135.46667"
   version="1.1"
   id="svg1"
   xml:space="preserve"
   inkscape:version="1.4.3 (0d15f75, 2025-12-25)"
   sodipodi:docname="pigeavion.svg"
   inkscape:export-filename="exports\pigeavion.svg"
   inkscape:export-xdpi="96"
   inkscape:export-ydpi="96"
   xmlns:inkscape="http://www.inkscape.org/namespaces/inkscape"
   xmlns:sodipodi="http://sodipodi.sourceforge.net/DTD/sodipodi-0.dtd"
   xmlns="http://www.w3.org/2000/svg"
   xmlns:svg="http://www.w3.org/2000/svg"><sodipodi:namedview
     id="namedview1"
     pagecolor="#505050"
     bordercolor="#eeeeee"
     borderopacity="1"
     inkscape:showpageshadow="0"
     inkscape:pageopacity="0"
     inkscape:pagecheckerboard="0"
     inkscape:deskcolor="#505050"
     inkscape:document-units="px"
     inkscape:zoom="0.43968987"
     inkscape:cx="1320.2487"
     inkscape:cy="229.70736"
     inkscape:window-width="2880"
     inkscape:window-height="1676"
     inkscape:window-x="-12"
     inkscape:window-y="-12"
     inkscape:window-maximized="1"
     inkscape:current-layer="layer1"><inkscape:page
       x="0"
       y="0"
       width="135.46666"
       height="135.46667"
       id="page2"
       margin="0"
       bleed="0" /></sodipodi:namedview><defs
     id="defs1" /><g
     inkscape:label="Calque 1"
     inkscape:groupmode="layer"
     id="layer1"><rect
       style="fill:#2b82ab;fill-opacity:1;stroke:none;stroke-width:1.32292;stroke-linecap:round;stroke-linejoin:round;stroke-miterlimit:10;stroke-dasharray:none;stroke-opacity:1;paint-order:fill stroke markers"
       id="rect30"
       width="135.46666"
       height="135.46666"
       x="0"
       y="0" /><path
       id="path32"
       style="fill:#ffffff;fill-opacity:0.331707;stroke:none;stroke-width:1.32292;stroke-linecap:round;stroke-linejoin:round;stroke-miterlimit:10;stroke-dasharray:none;stroke-opacity:1;paint-order:fill stroke markers"
       d="M 19.606038,18.803503 C 13.034203,19.216713 9.7582087,25.978814 9.2609333,31.38413 6.3436739,29.799819 2.7433495,28.474126 0,28.067537 v 26.84539 c 15.576695,3.815538 52.985442,11.766861 66.022843,3.754292 12.312968,-7.567344 2.128295,-8.68002 -2.66237,-8.25531 C 65.858272,47.290775 66.512107,36.585073 52.678438,30.93868 48.671881,29.30335 45.72631,28.854348 43.634545,29.059208 40.952973,24.500775 30.535948,19.445727 20.964612,18.807637 c -0.467574,-0.03117 -0.920451,-0.03168 -1.358574,-0.0041 z" /><path
       id="path14"
       style="fill:#aeaeae;fill-opacity:1;stroke:none;stroke-width:1.32292;stroke-linecap:round;stroke-linejoin:round;stroke-miterlimit:10;stroke-dasharray:none;stroke-opacity:1;paint-order:fill stroke markers"
       d="m 83.850178,46.725313 c -1.781789,0 -2.499779,5.079717 -5.577954,11.178129 0.684415,0.60547 1.31088,1.120588 1.884123,1.55391 1.272985,-4.403971 5.189447,-5.948458 7.811926,-8.425325 0.0735,-0.06942 0.145662,-0.139875 0.217041,-0.21084 0.02676,-4.049527 -2.55335,-4.095874 -4.335136,-4.095874 z"
       sodipodi:nodetypes="sccscs" /><path
       id="path10"
       style="fill:#a0a0a0;fill-opacity:1;stroke:none;stroke-width:1.32292;stroke-linecap:round;stroke-linejoin:round;stroke-miterlimit:10;stroke-dasharray:none;stroke-opacity:1;paint-order:fill stroke markers"
       d="m 48.621321,50.802066 c -2.992138,0.577663 -6.128274,2.265369 -8.166943,4.057117 l 1.755448,3.683496 c 1.372889,-0.257959 2.74624,-0.694805 4.119129,-1.65778 0.744258,-2.214724 1.504772,-4.291307 2.292366,-6.082833 z" /><path
       id="path11"
       style="fill:#a0a0a0;fill-opacity:1;stroke:none;stroke-width:1.32292;stroke-linecap:round;stroke-linejoin:round;stroke-miterlimit:10;stroke-dasharray:none;stroke-opacity:1;paint-order:fill stroke markers"
       d="m 43.94047,61.50994 c -2.00845,0.09357 -3.462813,1.060061 -4.81366,1.995744 l 1.237651,4.056083 c 0.519384,-0.14614 1.658188,-0.502365 3.026688,-1.361674 0.479994,-1.545831 0.960688,-3.118573 1.44539,-4.674133 -0.310853,-0.0249 -0.609148,-0.02939 -0.896069,-0.01602 z" /><path
       style="fill:#a0a0a0;fill-opacity:1;stroke:#000000;stroke-width:1.32292;stroke-linecap:round;stroke-linejoin:round;stroke-miterlimit:10;stroke-dasharray:none;stroke-opacity:1;paint-order:fill stroke markers"
       d="m 42.423222,69.267389 c 3.477744,-10.787536 6.881757,-24.509957 11.429302,-24.616333 4.547547,-0.106375 1.631225,6.437456 2.318165,20.145706"
       id="path5" /><ellipse
       style="fill:#000000;fill-opacity:1;stroke:#000000;stroke-width:1.32292;stroke-linecap:round;stroke-linejoin:round;stroke-miterlimit:10;stroke-dasharray:none;stroke-opacity:1;paint-order:fill stroke markers"
       id="path8"
       cx="39.731194"
       cy="65.540512"
       rx="1.7551934"
       ry="2.167398" /><ellipse
       style="fill:#000000;fill-opacity:1;stroke:#000000;stroke-width:1.32292;stroke-linecap:round;stroke-linejoin:round;stroke-miterlimit:10;stroke-dasharray:none;stroke-opacity:1;paint-order:fill stroke markers"
       id="path9"
       cx="41.566174"
       cy="56.498608"
       rx="1.648818"
       ry="2.2205856" /><path
       id="path20"
       style="fill:none;fill-opacity:0.493902;stroke:#000000;stroke-width:1.32292;stroke-linecap:round;stroke-linejoin:round;stroke-miterlimit:10;stroke-dasharray:none;stroke-opacity:1;paint-order:fill stroke markers"
       d="m 48.621321,50.802066 c -2.992138,0.577663 -6.128274,2.265369 -8.166943,4.057117 m 1.755448,3.683496 c 1.372889,-0.257959 2.74624,-0.694805 4.119129,-1.65778"
       sodipodi:nodetypes="cccc" /><path
       id="path21"
       style="fill:none;fill-opacity:0.493902;stroke:#000000;stroke-width:1.32292;stroke-linecap:round;stroke-linejoin:round;stroke-miterlimit:10;stroke-dasharray:none;stroke-opacity:1;paint-order:fill stroke markers"
       d="m 44.836539,61.52596 c -0.310853,-0.0249 -0.609148,-0.02939 -0.896069,-0.01602 -2.00845,0.09357 -3.462813,1.060061 -4.81366,1.995744 m 1.237651,4.056083 c 0.519384,-0.14614 1.658188,-0.502365 3.026688,-1.361674"
       sodipodi:nodetypes="csccc" /><path
       style="fill:#c4c4c4;fill-opacity:1;stroke:none;stroke-width:1.32292;stroke-linecap:round;stroke-linejoin:round;stroke-miterlimit:10;stroke-dasharray:none;stroke-opacity:1;paint-order:fill stroke markers"
       d="m 20.685153,89.585516 c -2.032168,-5.061604 3.98659,-13.689811 15.118964,-17.977279 11.132374,-4.287468 56.019155,-17.826841 60.080966,-19.105559 4.06181,-1.278718 5.896227,-1.536301 6.879407,0.14289 0.98319,1.679191 -2.5855,6.36616 -4.553441,9.264889 -1.967943,2.898729 -7.228183,11.646556 -12.46169,15.452013 -5.233507,3.805457 -20.910808,12.523919 -34.149305,14.25395 -13.238497,1.730031 -28.882733,3.0307 -30.914901,-2.030904 z"
       id="path1"
       sodipodi:nodetypes="zzzzzzzz" /><path
       style="fill:none;fill-opacity:0.494118;stroke:#265684;stroke-width:1.32292;stroke-linecap:round;stroke-linejoin:round;stroke-miterlimit:10;stroke-dasharray:none;stroke-opacity:1;paint-order:fill stroke markers"
       d="M 44.07818,80.784924 C 72.435642,71.833893 99.591801,59.912188 99.591801,59.912188"
       id="path29" /><path
       style="fill:#c4c4c4;fill-opacity:1;stroke:#000000;stroke-width:1.32292;stroke-linecap:round;stroke-linejoin:round;stroke-miterlimit:10;stroke-dasharray:none;stroke-opacity:1;paint-order:fill stroke markers"
       d="m 82.364515,68.599488 c 1.84286,2.519826 7.333827,4.437904 13.012844,5.378138 5.679011,0.940237 14.253951,1.090673 15.118961,-2.89592 0.86502,-3.986593 -7.93557,-4.13703 -9.81604,-4.926827 -1.88047,-0.789798 -6.995345,-2.783094 -6.995345,-2.783094"
       id="path3" /><path
       style="fill:none;fill-opacity:1;stroke:#000000;stroke-width:1.32292;stroke-linecap:round;stroke-linejoin:round;stroke-miterlimit:10;stroke-dasharray:none;stroke-opacity:1;paint-order:fill stroke markers"
       d="m 20.685153,89.585516 c -2.032168,-5.061604 3.98659,-13.689811 15.118964,-17.977279 11.132374,-4.287468 56.019155,-17.826841 60.080966,-19.105559 4.06181,-1.278718 5.896227,-1.536301 6.879407,0.14289 0.98319,1.679191 -2.5855,6.36616 -4.553441,9.264889 -1.967943,2.898729 -7.228183,11.646556 -12.46169,15.452013 -5.233507,3.805457 -20.910808,12.523919 -34.149305,14.25395 -13.238497,1.730031 -28.882733,3.0307 -30.914901,-2.030904 z"
       id="path30"
       sodipodi:nodetypes="zzzzzzzz" /><path
       style="fill:#265684;fill-opacity:1;stroke:#000000;stroke-width:1.32292;stroke-linecap:round;stroke-linejoin:round;stroke-miterlimit:10;stroke-dasharray:none;stroke-opacity:1;paint-order:fill stroke markers"
       d="m 79.882298,60.70152 c 0.940234,-6.017498 6.318374,-7.296216 9.02625,-10.68106 2.707872,-3.384844 7.860355,-9.891265 10.756278,-13.652201 2.895924,-3.760938 4.099424,-7.935576 10.229744,-7.973187 6.13033,-0.03761 1.09068,4.28747 -0.90262,7.559485 -1.9933,3.272015 -12.749576,19.255996 -12.749576,19.255996"
       id="path4" /><path
       id="path12"
       style="fill:#a0a0a0;fill-opacity:1;stroke:none;stroke-width:1.32292;stroke-linecap:round;stroke-linejoin:round;stroke-miterlimit:10;stroke-dasharray:none;stroke-opacity:1;paint-order:fill stroke markers"
       d="m 59.863012,94.316206 -3.466455,1.508952 4.391463,7.969542 9.836092,-6.806306 c -4.500504,-1.204975 -8.26888,-2.305917 -9.471256,-2.475818 -0.423112,-0.05979 -0.852228,-0.123758 -1.289844,-0.19637 z" /><path
       style="fill:#bbc6d2;fill-opacity:0.494118;stroke:#000000;stroke-width:1.32292;stroke-linecap:round;stroke-linejoin:round;stroke-miterlimit:10;stroke-dasharray:none;stroke-opacity:1;paint-order:fill stroke markers"
       d="m 30.350761,82.439734 c 0.263266,0.60175 4.70117,-0.131633 4.73878,-1.636006 0.03761,-1.504376 0.206852,-3.666913 -1.335132,-3.403648 -1.541984,0.263266 -3.760938,3.81735 -3.403648,5.039654 z"
       id="path15" /><path
       style="fill:none;fill-opacity:0.493902;stroke:#000000;stroke-width:1.32292;stroke-linecap:round;stroke-linejoin:round;stroke-miterlimit:10;stroke-dasharray:none;stroke-opacity:1;paint-order:fill stroke markers"
       d="m 20.507652,89.064183 c 2.734938,0.408504 8.564389,-1.265113 8.564389,-1.265113"
       id="path16" /><path
       style="fill:none;fill-opacity:0.493902;stroke:#000000;stroke-width:1.32292;stroke-linecap:round;stroke-linejoin:round;stroke-miterlimit:10;stroke-dasharray:none;stroke-opacity:1;paint-order:fill stroke markers"
       d="m 60.78802,103.7947 9.836092,-6.806306"
       id="path18" /><path
       style="fill:none;fill-opacity:0.493902;stroke:#000000;stroke-width:1.32292;stroke-linecap:round;stroke-linejoin:round;stroke-miterlimit:10;stroke-dasharray:none;stroke-opacity:1;paint-order:fill stroke markers"
       d="m 59.863012,94.316206 -3.466455,1.508952"
       id="path17" /><ellipse
       style="fill:#000000;fill-opacity:1;stroke:#000000;stroke-width:1.32292;stroke-linecap:round;stroke-linejoin:round;stroke-miterlimit:10;stroke-dasharray:none;stroke-opacity:1;paint-order:fill stroke markers"
       id="path6"
       cx="58.519745"
       cy="99.859871"
       rx="4.1885295"
       ry="4.6805158" /><path
       id="path13"
       style="fill:#a0a0a0;fill-opacity:1;stroke:none;stroke-width:1.32292;stroke-linecap:round;stroke-linejoin:round;stroke-miterlimit:10;stroke-dasharray:none;stroke-opacity:1;paint-order:fill stroke markers"
       d="m 78.156986,98.876134 c -1.475013,0.455922 -3.46204,1.722796 -4.895826,3.217376 l 5.034835,6.15414 c 4.424227,-3.53435 5.273219,-5.71835 6.641455,-8.09821 -2.041205,-0.268294 -4.379924,-0.727972 -6.780464,-1.273306 z" /><path
       id="path19"
       style="fill:none;fill-opacity:0.493902;stroke:#000000;stroke-width:1.32292;stroke-linecap:round;stroke-linejoin:round;stroke-miterlimit:10;stroke-dasharray:none;stroke-opacity:1;paint-order:fill stroke markers"
       d="m 78.156986,98.876134 c -1.475013,0.455922 -3.46204,1.722796 -4.895826,3.217376 m 5.034835,6.15414 c 4.424227,-3.53435 5.273219,-5.71835 6.641455,-8.09821"
       sodipodi:nodetypes="cccc" /><ellipse
       style="fill:#000000;fill-opacity:1;stroke:#000000;stroke-width:1.32292;stroke-linecap:round;stroke-linejoin:round;stroke-miterlimit:10;stroke-dasharray:none;stroke-opacity:1;paint-order:fill stroke markers"
       id="path7"
       cx="75.739258"
       cy="105.20523"
       rx="3.8827007"
       ry="4.0422635" /><path
       style="fill:#c4c4c4;fill-opacity:1;stroke:#000000;stroke-width:1.32292;stroke-linecap:round;stroke-linejoin:round;stroke-miterlimit:10;stroke-dasharray:none;stroke-opacity:1;paint-order:fill stroke markers"
       d="m 48.365648,89.547905 c 5.453358,3.723328 9.327123,4.475515 12.787185,4.964438 3.460062,0.488921 28.169417,8.687767 30.425979,4.889217 2.25656,-3.798546 0.451311,-5.227701 -3.497672,-7.822748 C 84.132157,88.983766 68.900362,78.641188 68.900362,78.641188"
       id="path2" /><path
       style="fill:none;fill-opacity:0.493902;stroke:#000000;stroke-width:1.32292;stroke-linecap:round;stroke-linejoin:round;stroke-miterlimit:10;stroke-dasharray:none;stroke-opacity:1;paint-order:fill stroke markers"
       d="m 43.345097,92.570127 -0.42264,3.885729"
       id="path22" /><path
       style="fill:none;fill-opacity:0.493902;stroke:#000000;stroke-width:1.32292;stroke-linecap:round;stroke-linejoin:round;stroke-miterlimit:10;stroke-dasharray:none;stroke-opacity:1;paint-order:fill stroke markers"
       d="m 38.906786,98.769518 c 0.580714,-0.948513 1.919271,-1.719734 4.015671,-2.313662 0.69341,1.260912 -0.091,2.992426 0.664845,4.361384"
       id="path23"
       sodipodi:nodetypes="ccc" /><path
       style="fill:none;fill-opacity:0.493902;stroke:#000000;stroke-width:1.32292;stroke-linecap:round;stroke-linejoin:round;stroke-miterlimit:10;stroke-dasharray:none;stroke-opacity:1;paint-order:fill stroke markers"
       d="m 42.922457,96.455856 c -0.638253,1.203733 -1.276505,2.88477 -1.914758,3.536979"
       id="path24"
       sodipodi:nodetypes="cc" /><path
       style="fill:none;fill-opacity:0.493902;stroke:#000000;stroke-width:1.32292;stroke-linecap:round;stroke-linejoin:round;stroke-miterlimit:10;stroke-dasharray:none;stroke-opacity:1;paint-order:fill stroke markers"
       d="m 53.709598,92.546349 -0.920826,5.18601"
       id="path25" /><path
       style="fill:none;fill-opacity:0.493902;stroke:#000000;stroke-width:1.32292;stroke-linecap:round;stroke-linejoin:round;stroke-miterlimit:10;stroke-dasharray:none;stroke-opacity:1;paint-order:fill stroke markers"
       d="m 48.400787,99.833273 c 1.409475,-1.170128 4.387985,-2.100914 4.387985,-2.100914 0,0 0.478689,3.005101 0.319124,3.909291"
       id="path26" /><path
       style="fill:none;fill-opacity:0.493902;stroke:#000000;stroke-width:1.32292;stroke-linecap:round;stroke-linejoin:round;stroke-miterlimit:10;stroke-dasharray:none;stroke-opacity:1;paint-order:fill stroke markers"
       d="m 50.608076,100.68428 c 0.744627,-1.01057 2.180696,-2.951921 2.180696,-2.951921"
       id="path27" /><path
       id="path28"
       style="fill:none;fill-opacity:0.493902;stroke:#000000;stroke-width:1.32292;stroke-linecap:round;stroke-linejoin:round;stroke-miterlimit:10;stroke-dasharray:none;stroke-opacity:1;paint-order:fill stroke markers"
       d="m 88.185314,50.821187 c 0.02676,-4.049527 -2.55335,-4.095874 -4.335136,-4.095874 -1.781789,0 -2.499779,5.079717 -5.577954,11.178129"
       sodipodi:nodetypes="csc" /><path
       id="path31"
       style="fill:#ffffff;fill-opacity:0.331707;stroke:none;stroke-width:1.32292;stroke-linecap:round;stroke-linejoin:round;stroke-miterlimit:10;stroke-dasharray:none;stroke-opacity:1;paint-order:fill stroke markers"
       d="m 100.09001,78.978641 c -6.571832,0.41321 -9.847826,7.175311 -10.345101,12.580627 -4.278704,-2.323687 -10.026926,-4.091877 -12.385291,-3.218408 -2.789515,1.033152 -4.223817,5.823825 -3.458703,9.046993 -6.46111,-0.759734 -16.187207,-0.346855 -19.070154,3.430797 -5.025716,6.58543 1.212816,11.95789 18.71617,12.47779 0,0 39.275909,10.99721 61.919729,8.67079 V 92.165949 c -0.71915,-0.36655 -1.48644,-0.718331 -2.30425,-1.052132 -4.00655,-1.63533 -6.95212,-2.084332 -9.04389,-1.879472 -2.68157,-4.558432 -13.0986,-9.613481 -22.66993,-10.25157 -0.46758,-0.03117 -0.92045,-0.03168 -1.35858,-0.0041 z" /></g></svg>
