<?xml version="1.0" encoding="UTF-8" standalone="no"?>
<!-- Created with Inkscape (http://www.inkscape.org/) -->

<svg
   width="512"
   height="512"
   viewBox="0 0 135.46666 135.46667"
   version="1.1"
   id="svg1"
   xml:space="preserve"
   inkscape:version="1.4.3 (0d15f75, 2025-12-25)"
   sodipodi:docname="prisegeon.svg"
   inkscape:export-filename="prisegeon.png"
   inkscape:export-xdpi="96"
   inkscape:export-ydpi="96"
   xmlns:inkscape="http://www.inkscape.org/namespaces/inkscape"
   xmlns:sodipodi="http://sodipodi.sourceforge.net/DTD/sodipodi-0.dtd"
   xmlns="http://www.w3.org/2000/svg"
   xmlns:svg="http://www.w3.org/2000/svg"><sodipodi:namedview
     id="namedview1"
     pagecolor="#505050"
     bordercolor="#eeeeee"
     borderopacity="1"
     inkscape:showpageshadow="0"
     inkscape:pageopacity="0"
     inkscape:pagecheckerboard="0"
     inkscape:deskcolor="#505050"
     inkscape:document-units="px"
     inkscape:zoom="1.4823793"
     inkscape:cx="413.52438"
     inkscape:cy="201.70276"
     inkscape:window-width="3360"
     inkscape:window-height="1766"
     inkscape:window-x="5028"
     inkscape:window-y="-12"
     inkscape:window-maximized="1"
     inkscape:current-layer="layer1" /><defs
     id="defs1" /><g
     inkscape:label="Calque 1"
     inkscape:groupmode="layer"
     id="layer1"><g
       id="g33"><rect
         style="fill:#00d8ff;fill-opacity:1;stroke:none;stroke-width:1.323;stroke-linecap:round;stroke-linejoin:round;stroke-opacity:1"
         id="rect28"
         width="27.093332"
         height="135.46666"
         x="5.3201293e-06"
         y="1.1315918e-07" /><rect
         style="fill:#00ff18;fill-opacity:1;stroke:none;stroke-width:1.323;stroke-linecap:round;stroke-linejoin:round;stroke-opacity:1"
         id="rect29"
         width="27.093332"
         height="135.46666"
         x="27.093338"
         y="3.0249023e-06" /><rect
         style="fill:#ff00e1;fill-opacity:1;stroke:none;stroke-width:1.323;stroke-linecap:round;stroke-linejoin:round;stroke-opacity:1"
         id="rect30"
         width="27.093332"
         height="135.46666"
         x="108.37334"
         y="3.0249023e-06" /><rect
         style="fill:#ff0000;fill-opacity:1;stroke:none;stroke-width:1.323;stroke-linecap:round;stroke-linejoin:round;stroke-opacity:1"
         id="rect31"
         width="27.093332"
         height="135.46666"
         x="81.280006"
         y="3.0249023e-06" /><rect
         style="fill:#d0ff00;fill-opacity:1;stroke:none;stroke-width:1.323;stroke-linecap:round;stroke-linejoin:round;stroke-opacity:1"
         id="rect32"
         width="27.093332"
         height="135.46666"
         x="54.186668"
         y="3.0249023e-06" /></g><rect
       style="opacity:1;fill:#000000;fill-opacity:0.5;stroke:none;stroke-width:1.323;stroke-linecap:round;stroke-linejoin:round;stroke-opacity:1"
       id="rect22"
       width="135.46666"
       height="135.46666"
       x="2.0712891e-05"
       y="-8.4051516e-07" /><path
       id="rect36-1"
       style="fill:#00d8ff;fill-opacity:1;stroke:none;stroke-width:1.323;stroke-linecap:round;stroke-linejoin:round;stroke-opacity:1"
       d="M 108.37323 25.662516 C 106.46421 25.852197 104.50954 26.239533 102.57565 26.661421 C 97.337509 27.69547 97.302372 35.263 100.87188 43.226302 C 103.61673 49.349862 105.68422 51.308062 108.37323 51.735343 L 108.37323 25.662516 z " /><path
       id="rect24"
       style="fill:#ff00e1;fill-opacity:1;stroke:none;stroke-width:1.323;stroke-linecap:round;stroke-linejoin:round;stroke-opacity:1"
       d="M 54.186873 29.54445 C 41.197785 36.073887 35.558864 55.506588 35.697045 102.00463 C 41.854346 102.26132 47.976135 102.72389 54.186873 102.67332 L 54.186873 29.54445 z " /><path
       id="rect25"
       style="fill:#00ff18;fill-opacity:1;stroke:none;stroke-width:1.323;stroke-linecap:round;stroke-linejoin:round;stroke-opacity:1"
       d="M 111.19941 25.546761 C 110.27445 25.522223 109.32953 25.567498 108.37323 25.662516 L 108.37323 51.735343 C 109.18111 51.863714 110.04518 51.853708 111.00046 51.777201 C 119.01469 52.171602 126.46373 43.049188 122.53257 33.697684 C 119.94301 27.537602 115.81845 25.669297 111.19941 25.546761 z " /><path
       id="rect26"
       style="fill:#00d8ff;fill-opacity:1;stroke:none;stroke-width:1.323;stroke-linecap:round;stroke-linejoin:round;stroke-opacity:1"
       d="M 81.279792 32.434712 L 81.279792 97.411107 C 83.255552 96.552074 85.254495 95.56081 87.279426 94.419042 C 92.183711 67.445473 91.2802 43.080124 81.279792 32.434712 z " /><path
       id="rect27"
       style="fill:#2f00ff;fill-opacity:1;stroke:none;stroke-width:1.323;stroke-linecap:round;stroke-linejoin:round;stroke-opacity:1"
       d="M 67.467716 26.773042 C 62.389386 26.833499 57.975479 27.639968 54.186873 29.54445 L 54.186873 102.67332 C 62.925302 102.60217 71.839942 101.51542 81.279792 97.411107 L 81.279792 32.434712 C 77.813946 28.74533 73.255815 26.704137 67.467716 26.773042 z " /><path
       style="fill:none;stroke-width:1.323;stroke-linecap:round;stroke-linejoin:round;stroke:#000000;stroke-opacity:1"
       d="M 35.697115,102.00451 C 35.518629,41.94411 44.978364,27.040564 67.467548,26.772835 89.956729,26.505109 93.883413,58.097054 87.279447,94.418868"
       id="path1" /><path
       style="fill:#d0ff00;stroke:#000000;stroke-width:1.323;stroke-linecap:round;stroke-linejoin:round;stroke-opacity:1;fill-opacity:1"
       d="m 52.742488,64.433293 c -0.169634,-4.395735 7.014234,-5.893319 12.839806,-5.678072 5.747426,0.212359 12.192717,0.418939 12.192796,4.874887 7.7e-5,4.346959 -6.572168,3.115612 -11.612718,3.301983 -4.969243,0.183735 -13.25025,1.896937 -13.419884,-2.498798 z"
       id="path2"
       sodipodi:nodetypes="zsssz" /><path
       style="fill:none;stroke:#000000;stroke-width:1.323;stroke-linecap:round;stroke-linejoin:round;stroke-opacity:1"
       d="m 56.334511,63.42931 c 2.652061,-1.441923 4.232256,1.929107 18.417479,-0.0223"
       id="path3"
       sodipodi:nodetypes="cc" /><path
       style="fill:#00d8ff;stroke:#d0ff00;stroke-width:1.323;stroke-linecap:round;stroke-linejoin:round;stroke-opacity:1;fill-opacity:1"
       d="m 51.693884,47.142503 c 0.08924,-4.506762 2.342623,-3.926684 3.413537,-3.971304 1.070915,-0.04462 2.788838,1.2494 2.811148,3.926682 0.0223,2.677284 -1.026292,3.145808 -2.811148,3.056567 -1.784855,-0.08924 -3.391225,-0.892429 -3.413537,-3.011945 z"
       id="path4" /><path
       style="fill:#ff0000;fill-opacity:1;stroke:#00ff18;stroke-width:1.323;stroke-linecap:round;stroke-linejoin:round;stroke-opacity:1"
       d="m 73.558367,45.75924 c 0,-2.164138 0.468524,-2.900392 1.740236,-3.011945 1.27171,-0.111554 2.721904,0.557768 3.145809,2.521108 0.423902,1.963344 -2.052585,3.257362 -2.632663,3.235053 -0.58008,-0.02231 -2.231069,-0.468524 -2.253382,-2.744216 z"
       id="path5" /><path
       style="fill:none;fill-opacity:1;stroke:#000000;stroke-width:1.323;stroke-linecap:round;stroke-linejoin:round;stroke-opacity:1"
       d="m 100.87203,43.226362 c -3.569504,-7.963302 -3.534321,-15.530796 1.70382,-16.564845 1.26969,-0.250647 2.55884,-0.429601 3.83313,-0.429601 3.98034,0 7.81566,1.746014 10.45996,8.506936 3.83404,9.802837 -2.26825,16.749774 -5.86869,17.038129 -4.1349,0.331159 -6.55872,-0.587317 -10.12822,-8.550619 z"
       id="path6"
       sodipodi:nodetypes="zssssz" /><path
       style="opacity:1;fill:#000000;fill-opacity:1;stroke:#000000;stroke-width:1.323;stroke-linecap:round;stroke-linejoin:round;stroke-opacity:1"
       d="m 108.60229,43.226362 c 0.98483,-1.277509 1.8458,-2.532054 1.59339,0.552162 -0.25242,3.084219 -2.57822,0.725347 -1.59339,-0.552162 z"
       id="path7"
       sodipodi:nodetypes="zsz" /><path
       style="opacity:1;fill:none;fill-opacity:1;stroke:#000000;stroke-width:1.323;stroke-linecap:round;stroke-linejoin:round;stroke-opacity:1"
       d="m 110.21484,34.07959 c -3.71473,0.0223 -8.02069,-1.070915 -8.02069,-1.070915"
       id="path8" /><path
       style="opacity:1;fill:none;fill-opacity:1;stroke:#000000;stroke-width:1.323;stroke-linecap:round;stroke-linejoin:round;stroke-opacity:1"
       d="m 110.23715,35.128192 c -3.8709,-0.200795 -8.31073,-1.27171 -8.31073,-1.27171"
       id="path9" /><path
       style="opacity:1;fill:none;fill-opacity:1;stroke:#000000;stroke-width:1.323;stroke-linecap:round;stroke-linejoin:round;stroke-opacity:1"
       d="m 102.98618,36.623008 c -4.120753,0.664922 -7.373689,1.595215 -7.373689,1.595215"
       id="path10" /><path
       style="opacity:1;fill:none;fill-opacity:1;stroke:#000000;stroke-width:1.323;stroke-linecap:round;stroke-linejoin:round;stroke-opacity:1"
       d="m 102.98618,37.883563 c -5.309947,0.970516 -6.88285,1.505971 -6.88285,1.505971"
       id="path11" /><path
       style="opacity:1;fill:none;fill-opacity:1;stroke:#000000;stroke-width:1.323;stroke-linecap:round;stroke-linejoin:round;stroke-opacity:1"
       d="m 102.57585,26.661517 c 7.74041,-1.68861 15.81339,-2.820017 19.95669,7.036115 3.93116,9.351504 -3.51806,18.47375 -11.53229,18.079349"
       id="path12"
       sodipodi:nodetypes="csc" /><path
       style="opacity:1;fill:none;fill-opacity:1;stroke:#000000;stroke-width:1.323;stroke-linecap:round;stroke-linejoin:round;stroke-opacity:1"
       d="m 122.53254,33.697632 c 9.4183,-1.546053 12.13178,10.222878 -3.26564,25.241673 -15.39742,15.018795 -9.65494,34.675746 13.5674,27.355662"
       id="path13" /></g></svg>
