<?xml version="1.0" encoding="UTF-8" standalone="no"?>
<!-- Created with Inkscape (http://www.inkscape.org/) -->

<svg
   width="512"
   height="512"
   viewBox="0 0 135.46666 135.46667"
   version="1.1"
   id="svg1"
   xml:space="preserve"
   inkscape:version="1.4.3 (0d15f75, 2025-12-25)"
   sodipodi:docname="st-pigeontin.svg"
   xmlns:inkscape="http://www.inkscape.org/namespaces/inkscape"
   xmlns:sodipodi="http://sodipodi.sourceforge.net/DTD/sodipodi-0.dtd"
   xmlns="http://www.w3.org/2000/svg"
   xmlns:svg="http://www.w3.org/2000/svg"><sodipodi:namedview
     id="namedview1"
     pagecolor="#505050"
     bordercolor="#eeeeee"
     borderopacity="1"
     inkscape:showpageshadow="0"
     inkscape:pageopacity="0"
     inkscape:pagecheckerboard="0"
     inkscape:deskcolor="#505050"
     inkscape:document-units="px"
     inkscape:zoom="2.448064"
     inkscape:cx="242.43648"
     inkscape:cy="284.71478"
     inkscape:window-width="2880"
     inkscape:window-height="1676"
     inkscape:window-x="-12"
     inkscape:window-y="-12"
     inkscape:window-maximized="1"
     inkscape:current-layer="g30" /><defs
     id="defs1" /><g
     inkscape:label="Calque 1"
     inkscape:groupmode="layer"
     id="layer1"><rect
       style="display:inline;opacity:1;fill:#fdd5de;fill-opacity:1;stroke:none;stroke-width:1.32292;stroke-linecap:round;stroke-linejoin:round;stroke-dasharray:none;stroke-opacity:1"
       id="rect19"
       width="135.46666"
       height="135.46666"
       x="0"
       y="0" /><g
       id="g30"
       style="display:inline"><path
         id="path30"
         style="opacity:1;fill:#c92548;fill-opacity:1;stroke:none;stroke-width:1.32292;stroke-dasharray:none;stroke-opacity:1"
         d="M 85.21857,90.687487 C 79.462168,79.269568 72.858788,69.729554 66.018192,62.453035 c -0.0023,-0.0024 -0.0045,-0.0048 -0.0067,-0.0072 v 0 C 49.478948,44.863722 31.560768,40.501817 20.859192,54.795621 5.7282125,75.006285 27.451931,90.461944 58.362328,114.77956 69.10393,102.6852 77.821147,96.133272 85.21857,90.687487 Z" /><path
         id="path29"
         style="display:inline;opacity:1;fill:#9b1c38;fill-opacity:1;stroke:none;stroke-width:1.32292;stroke-dasharray:none;stroke-opacity:1"
         d="m 94.877929,42.442887 c -2.208249,0.0625 -4.218604,0.454289 -5.71283,1.112593 -6.371519,2.807537 -11.775553,6.468022 -18.197339,13.266374 -1.574828,1.672148 -3.214437,3.537411 -4.949568,5.631181 6.840596,7.276519 13.443976,16.816533 19.200378,28.234452 9.62431,-7.08516 17.01488,-12.298281 23.72465,-25.408268 8.80048,-17.194954 -4.49527,-23.1072 -14.065291,-22.836332 z" /></g><path
       id="path2"
       style="display:inline;opacity:1;fill:none;fill-opacity:1;stroke:#000000;stroke-width:1.32292;stroke-dasharray:none;stroke-opacity:1"
       d="m 65.91282,62.564959 c 8.827053,-10.651538 15.282627,-15.497658 23.252027,-19.009283 7.9694,-3.511625 30.609773,0.560733 19.778383,21.7238 C 97.076204,88.466042 83.07925,86.949919 58.362444,114.77947 27.451965,90.461789 5.7281659,75.006548 20.85917,54.795851 35.990175,34.585153 65.548152,51.670987 85.218457,90.68736"
       sodipodi:nodetypes="csscsc" /><path
       style="display:inline;opacity:1;fill:#fdd5de;fill-opacity:1;stroke:#000000;stroke-width:1.32292;stroke-linejoin:round;stroke-dasharray:none;stroke-opacity:1"
       d="m 38.211556,57.011641 c 1.681308,-5.578888 1.987002,-8.291907 0.03821,-7.64231 -1.948789,0.649595 -1.413828,3.400827 -1.413828,3.400827 0,0 -2.674808,-2.02521 -3.439039,-0.687808 -0.76423,1.337405 -0.229268,2.254483 4.814656,4.929291 z"
       id="path3"
       sodipodi:nodetypes="sscsss" /><path
       style="display:inline;opacity:1;fill:#fdd5de;fill-opacity:1;stroke:#000000;stroke-width:1.32292;stroke-linecap:round;stroke-linejoin:round;stroke-dasharray:none;stroke-opacity:1"
       d="m 84.332904,52.808369 c 1.566675,-0.878863 4.317905,-1.069922 5.578888,-2.445538 1.26098,-1.375616 0.840653,-1.872366 0.229269,-1.987002 -0.611386,-0.114634 -3.209771,1.604885 -3.209771,1.604885 0,0 1.222769,-1.986999 0.534961,-2.216269 -0.687808,-0.229269 -3.362244,0.924785 -2.406955,4.707729"
       id="path4"
       sodipodi:nodetypes="csscsc" /><path
       style="display:inline;opacity:1;fill:#f43c76;fill-opacity:1;stroke:#000000;stroke-width:1.32292;stroke-linecap:round;stroke-linejoin:round;stroke-dasharray:none;stroke-opacity:1"
       d="m 57.374652,46.75184 c 2.693913,-6.495965 2.416881,-8.654918 1.280086,-8.769554 -1.136793,-0.114633 -2.541069,1.78639 -2.187612,3.983556 -0.974394,-1.280088 -4.279869,0.08988 1.289465,3.844171"
       id="path5"
       sodipodi:nodetypes="cscc" /><path
       style="display:inline;opacity:1;fill:#f43c76;fill-opacity:1;stroke:#000000;stroke-width:1.32292;stroke-linecap:round;stroke-linejoin:round;stroke-dasharray:none;stroke-opacity:1"
       d="m 67.309655,40.571121 c 3.152455,-1.757733 8.330368,-2.473225 7.346172,-4.98661 -0.671679,-1.715295 -4.126846,1.203666 -4.126846,1.203666 0,0 1.857915,-1.823433 0.840652,-2.827658 -1.095565,-1.081525 -4.824208,1.175007 -3.993107,5.311407"
       id="path6"
       sodipodi:nodetypes="cscsc" /><path
       style="display:inline;opacity:1;fill:#f43c76;fill-opacity:1;stroke:none;stroke-width:1.32292;stroke-linecap:round;stroke-linejoin:round;stroke-dasharray:none;stroke-opacity:1"
       d="m 47.716701,57.416757 c 5.755188,-8.619267 13.158571,-11.753548 14.212337,-5.37691 1.053767,6.376636 -6.241539,10.456604 -9.646015,11.51037 -2.191346,-0.180672 -1.666588,-5.100974 -4.566322,-6.13346 z"
       id="path22"
       sodipodi:nodetypes="cscc" /><path
       style="display:inline;opacity:1;fill:none;fill-opacity:1;stroke:#000000;stroke-width:1.32292;stroke-linecap:round;stroke-linejoin:round;stroke-dasharray:none;stroke-opacity:1"
       d="m 47.716701,57.416757 c 5.755188,-8.619267 13.158571,-11.753548 14.212337,-5.37691 1.053767,6.376636 -6.241539,10.456604 -9.646015,11.51037"
       id="path7" /><path
       style="display:inline;opacity:1;fill:none;fill-opacity:1;stroke:#000000;stroke-width:1.32292;stroke-linecap:round;stroke-linejoin:round;stroke-dasharray:none;stroke-opacity:1"
       d="m 53.174672,57.98417 c 2.918121,-1.648198 7.67358,-5.836243 8.754366,-5.944323"
       id="path8" /><path
       style="display:inline;opacity:1;fill:#f43c76;fill-opacity:1;stroke:none;stroke-width:1.32292;stroke-linecap:round;stroke-linejoin:round;stroke-dasharray:none;stroke-opacity:1"
       d="M 71.980347,61.604802 C 68.035479,57.14656 61.361626,58.686681 63.982533,49.932314 c 2.620904,-8.754366 12.104801,1.59416 14.023197,4.161026 -3.448523,1.39511 -1.755355,4.961427 -6.025383,7.511462 z"
       id="path21"
       sodipodi:nodetypes="cscc" /><path
       style="display:inline;opacity:1;fill:none;fill-opacity:1;stroke:#000000;stroke-width:1.32292;stroke-linecap:round;stroke-linejoin:round;stroke-dasharray:none;stroke-opacity:1"
       d="M 71.980347,61.604802 C 68.035479,57.14656 61.361626,58.686681 63.982533,49.932314 c 2.620904,-8.754366 12.104801,1.59416 14.023197,4.161026"
       id="path9" /><path
       style="display:inline;opacity:1;fill:none;fill-opacity:1;stroke:#000000;stroke-width:1.32292;stroke-linecap:round;stroke-linejoin:round;stroke-dasharray:none;stroke-opacity:1"
       d="M 75.03357,57.497815 C 71.629092,52.49918 67.90429,55.595662 64.173623,49.359512"
       id="path10" /><g
       id="g13"
       style="display:inline"><path
         style="opacity:1;fill:none;fill-opacity:1;stroke:#000000;stroke-width:1.32292;stroke-linecap:round;stroke-linejoin:round;stroke-dasharray:none;stroke-opacity:1"
         d="m 60.578057,77.978711 c 12.402018,2.512827 23.020742,-1.513099 26.398199,-4.242086"
         id="path11" /><path
         style="opacity:1;fill:none;fill-opacity:1;stroke:#000000;stroke-width:1.32292;stroke-linecap:round;stroke-linejoin:round;stroke-dasharray:none;stroke-opacity:1"
         d="m 88.408297,70.41321 -1.432041,3.323415 3.647651,-0.189137"
         id="path12" /><path
         style="opacity:1;fill:none;fill-opacity:1;stroke:#000000;stroke-width:1.32292;stroke-linecap:round;stroke-linejoin:round;stroke-dasharray:none;stroke-opacity:1"
         d="m 90.191594,71.656114 -3.215338,2.080511"
         id="path13" /></g><g
       id="g19"
       transform="matrix(-0.80177729,0.59762294,0.59762294,0.80177729,83.261951,-29.881615)"
       style="display:inline"><path
         style="opacity:1;fill:none;fill-opacity:1;stroke:#000000;stroke-width:1.32292;stroke-linecap:round;stroke-linejoin:round;stroke-dasharray:none;stroke-opacity:1"
         d="m 60.578057,77.978711 c 12.402018,2.512827 23.020742,-1.513099 26.398199,-4.242086"
         id="path17" /><path
         style="opacity:1;fill:none;fill-opacity:1;stroke:#000000;stroke-width:1.32292;stroke-linecap:round;stroke-linejoin:round;stroke-dasharray:none;stroke-opacity:1"
         d="m 88.408297,70.41321 -1.432041,3.323415 3.647651,-0.189137"
         id="path18" /><path
         style="opacity:1;fill:none;fill-opacity:1;stroke:#000000;stroke-width:1.32292;stroke-linecap:round;stroke-linejoin:round;stroke-dasharray:none;stroke-opacity:1"
         d="m 90.191594,71.656114 -3.215338,2.080511"
         id="path19" /></g></g></svg>
