<?xml version="1.0" encoding="UTF-8" standalone="no"?>
<!-- Created with Inkscape (http://www.inkscape.org/) -->

<svg
   width="512"
   height="512"
   viewBox="0 0 135.46666 135.46667"
   version="1.1"
   id="svg1"
   xml:space="preserve"
   inkscape:version="1.4.3 (0d15f75, 2025-12-25)"
   sodipodi:docname="super-pigeon.svg"
   inkscape:export-filename="super-pigeon.png"
   inkscape:export-xdpi="96"
   inkscape:export-ydpi="96"
   xmlns:inkscape="http://www.inkscape.org/namespaces/inkscape"
   xmlns:sodipodi="http://sodipodi.sourceforge.net/DTD/sodipodi-0.dtd"
   xmlns:xlink="http://www.w3.org/1999/xlink"
   xmlns="http://www.w3.org/2000/svg"
   xmlns:svg="http://www.w3.org/2000/svg"><sodipodi:namedview
     id="namedview1"
     pagecolor="#505050"
     bordercolor="#eeeeee"
     borderopacity="1"
     inkscape:showpageshadow="0"
     inkscape:pageopacity="0"
     inkscape:pagecheckerboard="0"
     inkscape:deskcolor="#505050"
     inkscape:document-units="px"
     inkscape:zoom="1.0494781"
     inkscape:cx="-90.521181"
     inkscape:cy="380.18896"
     inkscape:window-width="3360"
     inkscape:window-height="1766"
     inkscape:window-x="5028"
     inkscape:window-y="-12"
     inkscape:window-maximized="1"
     inkscape:current-layer="layer1" /><defs
     id="defs1"><linearGradient
       id="linearGradient44"
       inkscape:collect="always"><stop
         style="stop-color:#a0cef1;stop-opacity:1;"
         offset="0"
         id="stop44" /><stop
         style="stop-color:#6ab5e8;stop-opacity:1;"
         offset="0.76228207"
         id="stop46" /><stop
         style="stop-color:#2c98df;stop-opacity:1;"
         offset="1"
         id="stop45" /></linearGradient><inkscape:perspective
       sodipodi:type="inkscape:persp3d"
       inkscape:vp_x="-173.29495 : 9.6432108 : 1"
       inkscape:vp_y="-1.3633738e-13 : 742.18617 : 0"
       inkscape:vp_z="135.46666 : 0 : 1"
       inkscape:persp3d-origin="67.73333 : 45.155557 : 1"
       id="perspective10" /><linearGradient
       inkscape:collect="always"
       xlink:href="#linearGradient44"
       id="linearGradient45"
       x1="67.73333"
       y1="135.46666"
       x2="67.73333"
       y2="0"
       gradientUnits="userSpaceOnUse" /></defs><g
     inkscape:label="Calque 1"
     inkscape:groupmode="layer"
     id="layer1"><rect
       style="fill:url(#linearGradient45);fill-opacity:1;stroke:none;stroke-width:1.323;stroke-linecap:butt;stroke-linejoin:round;stroke-dasharray:none;stroke-opacity:1"
       id="rect44"
       width="135.46666"
       height="135.46666"
       x="0"
       y="0" /><path
       style="fill:#0060ac;fill-opacity:1;stroke:none;stroke-width:1.32292;stroke-linecap:square;stroke-linejoin:round;stroke-opacity:1"
       d="M 47.932861,98.675763 C 41.718341,69.54858 33.342249,45.987446 57.551856,41.718341 81.761461,37.449236 91.704693,56.146834 85.490173,92.893559 75.921952,97.917575 59.745206,100.69128 47.932861,98.675763 Z"
       id="path8"
       sodipodi:nodetypes="cscc" /><path
       style="fill:none;stroke-width:1.32292;stroke-linecap:square;stroke-linejoin:round;stroke:#000000;stroke-opacity:1"
       d="M 47.932861,98.675763 C 41.718341,69.54858 33.342249,45.987446 57.551856,41.718341 81.761461,37.449236 91.704693,56.146834 85.490173,92.893559"
       id="path1" /><path
       style="fill:#e3bb3f;stroke:#000000;stroke-width:1.32292;stroke-linecap:square;stroke-linejoin:round;stroke-opacity:1;fill-opacity:1"
       d="m 81.491266,66.954693 c 10.591702,-4.971616 12.753274,-3.782751 13.455785,1.350983 0.702511,5.133735 -5.295852,7.889738 -10.75382,6.754913"
       id="path2" /><path
       style="fill:none;stroke:#000000;stroke-width:1.32292;stroke-linecap:butt;stroke-linejoin:round;stroke-opacity:1"
       d="m 83.868994,70.683405 c 6.484716,-0.64847 11.078057,-2.377729 11.078057,-2.377729"
       id="path3" /><path
       style="fill:#fcea0e;stroke:none;stroke-width:1.32292;stroke-linecap:square;stroke-linejoin:round;stroke-opacity:1;fill-opacity:1"
       d="M 56.849345,80.248362 59.389192,77.2762 71.548034,75.709059 74.95251,78.681222 67.495086,90.35371 Z"
       id="path10" /><path
       style="fill:none;stroke:#000000;stroke-width:1.32292;stroke-linecap:square;stroke-linejoin:round;stroke-opacity:1"
       d="M 56.849345,80.248362 59.389192,77.2762 71.548034,75.709059 74.95251,78.681222 67.495086,90.35371 Z"
       id="path4" /><path
       id="path9"
       style="fill:#e60026;stroke:none;stroke-width:1.32292;stroke-linecap:butt;stroke-linejoin:round;stroke-opacity:1;fill-opacity:1"
       d="M 65.758776 76.468717 C 65.661895 76.472309 65.565296 76.48006 65.468871 76.492488 C 63.926076 76.691338 61.180426 77.67744 61.023665 80.113455 L 65.694181 84.391747 C 68.617999 81.737444 69.042775 80.239269 68.852127 78.741963 C 68.673396 77.338239 67.211986 76.414835 65.758776 76.468717 z " /><path
       style="fill:none;stroke:#000000;stroke-width:1.32292;stroke-linecap:butt;stroke-linejoin:round;stroke-opacity:1"
       d="m 69.232938,87.633594 -8.209057,-7.520329 c 0.156761,-2.436015 2.901937,-3.421786 4.444732,-3.620636 1.542795,-0.198849 3.192914,0.752165 3.383561,2.24947 0.190648,1.497306 -0.233954,2.995534 -3.157772,5.649837"
       id="path5"
       sodipodi:nodetypes="cczzc" /><path
       style="fill:#e60026;stroke:#000000;stroke-width:1.323;stroke-linecap:butt;stroke-linejoin:round;stroke-dasharray:none;stroke-opacity:1;fill-opacity:1"
       d="m 42.650079,74.085571 c -1.201936,0.8129 -2.336761,3.568903 9.065532,4.973926 -2.701965,10.321506 0.108078,19.237991 -1.350983,20.588973 -1.459061,1.35098 -1.891375,-2.323689 -4.917576,-2.161572 -3.026201,0.162118 -3.83679,0.378276 -4.161026,-0.972707 -0.324236,-1.350982 -0.81059,-3.08024 -1.729258,-2.539847 C 38.6381,94.514737 37.503275,91.92085 38.205786,90.786025 38.908297,89.6512 41.926819,75.184962 41.926819,75.184962"
       id="path6"
       sodipodi:nodetypes="ccsssssc" /><path
       style="fill:none;stroke:#000000;stroke-width:1.32292;stroke-linecap:square;stroke-linejoin:round;stroke-opacity:1"
       d="m 74.466155,54.201419 c 2.053495,-1.837338 3.188319,-0.216156 1.513102,0.540393 -1.67522,0.75655 -1.513102,-0.540393 -1.513102,-0.540393 z"
       id="path7" /></g></svg>
